<?xml version="1.0" encoding="utf-8"?>
<!-- Generator: Adobe Illustrator 16.0.0, SVG Export Plug-In . SVG Version: 6.00 Build 0)  -->
<!DOCTYPE svg PUBLIC "-//W3C//DTD SVG 1.1//EN" "http://www.w3.org/Graphics/SVG/1.1/DTD/svg11.dtd">
<svg version="1.1" id="mandala" xmlns="http://www.w3.org/2000/svg" xmlns:xlink="http://www.w3.org/1999/xlink" x="0px" y="0px"
	 width="498.96px" height="491.617px" viewBox="45.389 49.061 498.96 491.617"
	 enable-background="new 45.389 49.061 498.96 491.617" xml:space="preserve">
<g id="editable">
	<polygon fill="#939395" points="237.522,333.398 230.461,293.738 217.362,316.425 	"/>
	<polygon fill="#939395" points="360.316,290.959 374.333,315.237 414.08,281.773 365.109,264.042 	"/>
	<path fill="#939395" d="M271.835,479.423c-10.551,9.307-18.279,13.262-31.029,19.451c-8.911,4.322-17.899,9.363-21.411,19.123
		c-0.021,0.061-0.043,0.121-0.064,0.182l-2.003-0.711c0.021-0.061,0.043-0.121,0.064-0.182c3.439-9.801-0.35-19.373-4.53-28.342
		c-5.989-12.848-9.489-20.793-11.801-34.668c-1.153-6.924-1.311-12.775-0.501-18.4l-11.277-4.023
		c-1.531,3.711-3.407,6.895-5.231,9.971c-2.321,3.92-4.512,7.619-5.884,12.164c-2.777,9.207-1.273,19.756,4.473,31.355
		l11.446,22.637c2.588,5.117,5.162,10.262,7.737,15.406c2.423,4.844,4.847,9.686,7.281,14.506c4.961-2.15,9.933-4.326,14.906-6.502
		c5.269-2.305,10.537-4.611,15.792-6.887l23.282-10.092c10.365-4.596,18.064-11.578,23.528-21.35
		c2.602-4.654,4.017-9.889,5.514-15.432c0.722-2.674,1.476-5.434,2.384-8.232l-10.741-3.832
		C280.859,470.398,277.063,474.81,271.835,479.423z"/>
	<path fill="#939395" d="M202.609,436.609c-0.709,5.271-0.539,10.793,0.547,17.32c2.272,13.629,5.55,21.072,11.631,34.117
		c3.363,7.215,6.476,14.816,6.039,22.75c4.667-6.422,11.885-10.357,19.05-13.834c12.947-6.285,20.186-9.99,30.551-19.133
		c4.927-4.348,8.525-8.496,11.292-12.994l-10.756-3.838l-41.562,17.936l-14.296-37.865L202.609,436.609z"/>
	<polygon fill="#939395" points="268.026,459.949 217.731,442.003 230.603,476.097 	"/>
	<circle fill="#939395" cx="294.964" cy="281.687" r="5.783"/>
	<polygon fill="#939395" points="359.74,294.208 352.761,333.398 372.683,316.626 	"/>
	<path fill="#939395" d="M417.31,199.589l10.979,9.094c2.248-4.462,3.861-9.435,5.031-15.509
		c2.611-13.571,2.125-21.688,0.961-36.034c-0.643-7.932-0.918-16.144,2.252-23.43c-6.611,4.399-14.746,5.578-22.674,6.347
		c-14.326,1.388-22.402,2.344-35.299,7.312c-5.934,2.287-10.635,4.833-14.701,7.945l8.992,7.449l43.004-3.551L417.31,199.589z"/>
	<path fill="#939395" d="M272.398,362.763h45.488l32.334-27.225l7.867-44.188l-21.789-37.74l-41.156-14.903l-41.606,15.065
		l-21.424,37.107l7.95,44.659L272.398,362.763z M294.957,257.336c25.656,0,46.527,20.872,46.527,46.526
		c0,25.655-20.871,46.526-46.527,46.526c-25.653,0-46.526-20.869-46.527-46.522C248.43,278.208,269.302,257.336,294.957,257.336z"/>
	<polygon fill="#939395" points="363.082,263.307 339.402,254.732 358.667,288.1 	"/>
	<path fill="#939395" d="M377.796,145.387c13.127-5.058,21.75-6.077,35.855-7.445c9.861-0.956,20.039-2.554,26.727-10.485
		c0.041-0.048,0.082-0.098,0.125-0.147l1.631,1.364c-0.041,0.049-0.082,0.098-0.123,0.147c-6.633,7.994-6.412,18.286-5.611,28.148
		c1.148,14.127,1.666,22.793-0.992,36.607c-1.244,6.469-2.99,11.742-5.445,16.494l8.223,6.811c2.66-3.011,5.676-5.703,8.617-8.298
		c3.887-3.429,7.557-6.667,10.369-10.563c5.627-7.795,7.645-18.258,5.998-31.098l-3.439-25.132
		c-0.775-5.683-1.533-11.389-2.289-17.094c-0.711-5.367-1.422-10.733-2.15-16.082c-5.389,0.417-10.793,0.851-16.199,1.285
		c-5.738,0.461-11.473,0.922-17.189,1.361l-25.299,1.946c-11.295,0.963-20.852,5.054-29.205,12.508
		c-3.977,3.55-7.021,8.039-10.246,12.792c-1.578,2.323-3.211,4.719-5.012,7.104l10.041,8.316
		C366.5,150.551,371.48,147.821,377.796,145.387z"/>
	<path fill="#939395" d="M294.899,348.194c24.487,0,44.338-19.851,44.338-44.337v-0.004c-0.002-24.486-19.852-44.333-44.338-44.333
		c12.243,0,22.168,9.925,22.168,22.168c0,12.243-9.926,22.169-22.168,22.169c-12.243,0-22.168,9.925-22.168,22.168
		C272.731,338.267,282.656,348.194,294.899,348.194z M294.965,320.242c3.192,0,5.784,2.589,5.784,5.783
		c0,3.193-2.59,5.783-5.784,5.783s-5.783-2.59-5.783-5.783C289.182,322.831,291.771,320.242,294.965,320.242z"/>
	<polygon fill="#939395" points="227.202,263.307 231.532,287.63 250.431,254.896 	"/>
	<polygon fill="#939395" points="269.975,145.221 319.373,144.908 294.958,119.194 	"/>
	<path fill="#939395" d="M158.574,211.677c-2.489-4.689-4.29-9.908-5.615-16.312c-2.85-13.777-2.45-22.449-1.499-36.591
		c0.665-9.883,0.746-20.188-5.987-28.079c-0.042-0.049-0.083-0.097-0.125-0.145l1.612-1.387c0.042,0.048,0.083,0.096,0.125,0.145
		c6.805,7.848,16.997,9.307,26.858,10.125c14.125,1.173,22.76,2.074,35.956,6.949c6.34,2.343,11.353,5,15.717,8.311l9.825-8.351
		c-2.421-3.173-4.191-6.346-5.899-9.423c-2.172-3.912-4.224-7.607-7.461-11.072c-6.564-7.026-16.44-11.024-29.356-11.883
		l-25.323-1.475c-5.739-0.334-11.496-0.694-17.253-1.053c-5.39-0.337-10.78-0.673-16.156-0.989
		c-0.63,5.362-1.246,10.745-1.862,16.128c-0.654,5.723-1.31,11.446-1.981,17.143l-2.97,25.2c-1.234,11.269,0.937,21.435,6.64,31.068
		c2.716,4.587,6.532,8.44,10.57,12.521c1.949,1.967,3.955,4.004,5.919,6.194L158.574,211.677z"/>
	<polygon fill="#939395" points="213.917,164.637 176.115,161.515 174.805,197.882 	"/>
	<polygon fill="#939395" points="145.481,358.874 134.153,395.423 172.769,405.452 	"/>
	<path fill="#939395" d="M336.705,144.798c-1.146-4.792-3.088-9.582-6.047-14.915c-6.703-12.086-12.285-18-22.383-28.256
		c-5.582-5.671-11.061-11.793-13.306-19.416c-2.248,7.615-7.732,13.741-13.319,19.416c-10.096,10.256-15.677,16.171-22.382,28.256
		c-3.068,5.529-5.036,10.475-6.162,15.445l13.902-0.088l27.958-29.125l27.32,28.774L336.705,144.798z"/>
	<path fill="#939395" d="M237.928,145.424l12.999-0.083c1.152-5.336,3.216-10.602,6.482-16.491
		c6.826-12.303,12.784-18.616,22.727-28.716c6.949-7.059,13.731-14.817,13.772-25.191c0-0.064,0-0.127,0-0.191h2.125
		c0.002,0.063,0.002,0.128,0.002,0.191c0.041,10.387,6.816,18.139,13.758,25.191c9.943,10.1,15.9,16.413,22.727,28.716
		c3.152,5.683,5.184,10.787,6.359,15.932l10.771-0.068c0.18-4.009,0.865-7.595,1.535-11.066c0.85-4.393,1.652-8.543,1.396-13.277
		c-0.518-9.601-5.518-19.01-14.863-27.965l-18.459-17.398c-4.174-3.933-8.344-7.897-12.514-11.86
		c-3.926-3.73-7.852-7.461-11.779-11.167c-3.92,3.697-7.842,7.419-11.764,11.141c-4.187,3.972-8.373,7.945-12.556,11.887
		l-18.465,17.404c-8.186,7.844-13.052,17.029-14.87,28.075c-0.866,5.261-0.416,10.668,0.06,16.39
		C237.6,139.636,237.829,142.485,237.928,145.424z"/>
	<path fill="#939395" d="M223.957,156.104c-4.106-3.051-8.837-5.527-14.793-7.728c-12.964-4.789-21.052-5.634-35.395-6.824
		c-7.931-0.659-16.078-1.727-22.75-6.042c3.262,7.238,3.099,15.459,2.567,23.406c-0.966,14.361-1.34,22.485,1.459,36.018
		c1.243,6.011,2.909,10.932,5.189,15.334l12.377-10.52l1.46-40.535l42.134,3.48L223.957,156.104z"/>
	<polygon fill="#939395" points="415.117,197.772 413.81,161.515 375.193,164.704 	"/>
	<path fill="#939395" d="M132.104,320.476c-5.03-2.004-9.853-4.885-15.086-9.033c-11.023-8.738-16.282-15.646-24.626-27.104
		c-5.831-8.007-12.38-15.964-22.607-17.695c-0.063-0.01-0.126-0.021-0.189-0.031l0.347-2.098c0.063,0.01,0.125,0.021,0.188,0.031
		c10.258,1.658,19.008-3.767,27.097-9.466c11.587-8.163,18.788-13.012,32.038-17.74c6.444-2.299,12.051-3.48,17.587-3.721
		L148.996,221c-3.916-0.878-7.302-2.176-10.577-3.44c-4.135-1.595-8.04-3.102-12.742-3.678c-9.545-1.174-19.683,2.108-30.134,9.745
		l-20.357,15.132c-4.593,3.414-9.215,6.82-13.837,10.226c-4.369,3.22-8.738,6.439-13.083,9.666c2.959,4.512,5.942,9.031,8.925,13.55
		c3.174,4.81,6.349,9.619,9.495,14.42l13.907,21.225c6.292,9.432,14.485,15.828,25.043,19.549
		c5.028,1.773,10.429,2.275,16.144,2.809c2.757,0.256,5.601,0.527,8.512,0.945L132.104,320.476z"/>
	<path fill="#939395" d="M127.61,359.919c-7.005,11.914-9.264,19.727-12.97,33.633c-2.049,7.689-4.539,15.52-9.965,21.324
		c7.701-1.935,15.763-0.32,23.49,1.61c13.966,3.487,21.894,5.295,35.708,4.927c6.439-0.17,11.777-1.016,16.707-2.627l-6.293-10.743
		l-42.824-11.122l12.562-40.531l-5.85-9.986C134.302,349.97,130.927,354.28,127.61,359.919z"/>
	<path fill="#939395" d="M146.49,235.768c-5.172,0.276-10.449,1.413-16.508,3.574c-13.015,4.644-19.761,9.186-31.527,17.476
		c-6.506,4.584-13.44,8.992-21.326,9.963c7.146,3.459,12.296,9.868,16.984,16.306c8.473,11.634,13.399,18.106,24.228,26.69
		c4.919,3.898,9.446,6.636,14.13,8.557l1.902-11.201l-26.662-38.2l37.125-23.43L146.49,235.768z"/>
	<polygon fill="#939395" points="144.358,248.319 110.728,269.542 134.88,304.144 	"/>
	<path fill="#939395" d="M181.681,420.663c-5.252,1.772-10.909,2.695-17.75,2.875c-1.151,0.03-2.265,0.046-3.347,0.046
		c-12.135,0-20.305-1.882-32.933-5.035c-9.61-2.4-19.737-4.3-28.693,0.932c-0.055,0.035-0.111,0.068-0.166,0.1l-1.08-1.832
		c0.056-0.033,0.111-0.066,0.167-0.1c8.925-5.311,12.16-15.084,14.708-24.645c3.649-13.695,6.061-22.033,13.191-34.162
		c3.523-5.99,7.121-10.545,11.296-14.317l-6.308-10.769c-3.563,1.848-7.001,3.039-10.334,4.186
		c-4.211,1.447-8.188,2.816-12.16,5.398c-8.058,5.243-13.712,14.276-16.803,26.846l-5.853,24.683
		c-1.324,5.587-2.676,11.187-4.029,16.785c-1.27,5.258-2.54,10.515-3.787,15.762c5.168,1.552,10.359,3.093,15.55,4.634
		c5.525,1.641,11.049,3.283,16.546,4.934l24.301,7.305c10.885,3.172,21.273,2.801,31.75-1.141c4.991-1.877,9.449-4.967,14.17-8.238
		c2.275-1.578,4.628-3.198,7.126-4.753L181.681,420.663z"/>
	<path fill="#939395" d="M410.421,417.376c4.986,1.572,10.375,2.355,16.877,2.438c13.82,0.162,21.723-1.739,35.637-5.42
		c7.693-2.034,15.73-3.756,23.459-1.924c-5.498-5.729-8.096-13.529-10.254-21.195c-3.896-13.854-6.264-21.633-13.434-33.45
		c-3.404-5.61-6.848-9.881-10.783-13.399l-6.299,11.072l12.838,41.424l-42.717,11.096L410.421,417.376z"/>
	<polygon fill="#939395" points="352.181,336.667 347.535,362.761 399.318,362.761 373.763,318.497 	"/>
	<polygon fill="#939395" points="417.212,405.439 455.773,395.423 444.183,358.032 	"/>
	<path fill="#939395" d="M388.355,452.736c0.996-6.535,1.09-12.055,0.311-17.314l-13.621,5.057l-14.52,38.455l-41.193-17.777
		l-9.426,3.5c2.834,4.488,6.504,8.607,11.518,12.908c10.488,8.998,17.777,12.604,30.811,18.707
		c7.207,3.377,14.475,7.211,19.229,13.576c-0.539-7.92,2.471-15.57,5.734-22.834C383.097,473.882,386.273,466.392,388.355,452.736z"
		/>
	<path fill="#939395" d="M471.455,307.589c10.711-8.736,15.547-15.274,23.857-27.022c4.596-6.497,9.654-12.972,16.76-16.528
		c-7.893-0.867-14.891-5.182-21.465-9.679c-11.879-8.126-18.688-12.575-31.766-17.039c-6.111-2.085-11.42-3.149-16.613-3.348
		l2.01,10.993l37.977,23.967l-26.617,38.137l1.705,9.329C462.009,314.411,466.542,311.595,471.455,307.589z"/>
	<path fill="#939395" d="M457.642,330.075L437.314,218.92l-87.021-72.082l-112.996,0.717l-86.099,73.183l-18.915,111.404
		l57.12,97.498l106.427,37.973l105.936-39.321L457.642,330.075z M401.158,364.888h-54.004l-9.521,53.49
		c-0.068,0.373-0.33,0.682-0.686,0.811c-0.117,0.044-0.24,0.064-0.361,0.064c-0.248,0-0.492-0.086-0.686-0.25l-40.759-34.314
		l-40.759,34.314c-0.195,0.164-0.438,0.25-0.685,0.25c-0.122,0-0.244-0.021-0.362-0.064c-0.357-0.127-0.619-0.438-0.685-0.811
		l-9.523-53.49h-54.36c-0.379,0-0.73-0.203-0.92-0.531c-0.19-0.329-0.19-0.733,0-1.063l26.783-46.389l-41.205-34.692
		c-0.291-0.245-0.429-0.626-0.362-1c0.067-0.374,0.328-0.684,0.685-0.813l51.047-18.484l-9.372-52.641
		c-0.067-0.375,0.071-0.755,0.362-1c0.29-0.246,0.689-0.317,1.046-0.187l50.141,18.156l27.07-46.888c0.38-0.658,1.461-0.659,1.841,0
		l27.132,46.994l50.436-18.262c0.357-0.128,0.758-0.058,1.047,0.187c0.291,0.245,0.428,0.626,0.361,1l-9.371,52.641l51.047,18.484
		c0.357,0.13,0.617,0.44,0.684,0.814c0.068,0.375-0.07,0.756-0.361,1l-41.443,34.893l26.574,46.03
		c0.158,0.185,0.254,0.424,0.254,0.688c0,0.586-0.475,1.063-1.063,1.063C401.173,364.89,401.166,364.888,401.158,364.888z"/>
	<polygon fill="#939395" points="455.058,304.124 479.197,269.541 444.759,247.807 	"/>
	<path fill="#939395" d="M514.558,239.128l-20.354-15.152c-9.148-6.694-19.029-9.883-30.236-9.754
		c-5.33,0.064-10.572,1.448-16.125,2.913c-2.678,0.707-5.445,1.429-8.324,2.038l2.314,12.657c5.555,0.158,11.195,1.262,17.693,3.479
		c13.313,4.544,20.58,9.293,32.279,17.296c8.176,5.592,17.016,10.891,27.23,9.105c0.063-0.012,0.125-0.023,0.188-0.034l0.375,2.092
		c-0.064,0.012-0.127,0.023-0.189,0.034c-10.215,1.876-16.648,9.913-22.361,17.991c-8.186,11.57-13.346,18.549-24.25,27.443
		c-5.225,4.261-10.049,7.225-15.105,9.302l1.928,10.535c3.98-0.521,7.641-0.472,11.184-0.42c4.494,0.069,8.734,0.133,13.354-0.942
		c9.365-2.182,17.76-8.744,24.949-19.508l13.918-21.206c3.146-4.795,6.324-9.592,9.5-14.388c2.99-4.514,5.98-9.03,8.943-13.543
		c-4.316-3.211-8.658-6.42-12.998-9.629C523.822,246,519.175,242.565,514.558,239.128z"/>
	<polygon fill="#939395" points="322.214,460.085 359.322,476.099 372.402,441.458 	"/>
	<path fill="#939395" d="M390.705,434.666c0.885,5.609,0.807,11.459-0.25,18.393c-2.119,13.902-5.51,21.895-11.32,34.826
		c-4.059,9.035-7.721,18.668-4.152,28.408c0.023,0.059,0.045,0.119,0.066,0.18l-1.992,0.738c-0.021-0.061-0.045-0.119-0.068-0.182
		c-3.648-9.723-12.697-14.635-21.656-18.832c-12.836-6.012-20.619-9.859-31.295-19.02c-5.32-4.564-9.191-8.943-12.174-13.766
		l-10.701,3.973c1.223,3.824,1.861,7.516,2.473,11.094c0.781,4.578,1.52,8.904,3.406,13.27c3.814,8.828,11.766,15.92,23.637,21.082
		l23.344,9.922c5.279,2.242,10.564,4.516,15.85,6.789c4.975,2.139,9.949,4.277,14.918,6.393c2.387-4.811,4.768-9.643,7.148-14.477
		c2.559-5.193,5.117-10.389,7.684-15.553l11.289-22.727c4.961-10.193,6.342-20.496,4.219-31.488
		c-1.012-5.236-3.307-10.15-5.74-15.354c-1.172-2.51-2.373-5.104-3.486-7.828L390.705,434.666z"/>
	<path fill="#939395" d="M453.001,342.532c4.238,3.719,7.91,8.231,11.523,14.188c7.299,12.031,9.824,20.336,13.662,33.979
		c2.684,9.535,6.057,19.271,15.041,24.453c0.057,0.031,0.111,0.064,0.168,0.096l-1.055,1.846c-0.057-0.031-0.111-0.063-0.168-0.096
		c-9.039-5.115-19.129-3.076-28.695-0.548c-13.156,3.479-21.459,5.501-34.553,5.501c-0.543,0-1.092-0.003-1.654-0.012
		c-6.902-0.086-12.613-0.941-17.926-2.672l-5.422,9.529c3.383,2.161,6.135,4.545,8.797,6.857c3.363,2.924,6.537,5.686,10.762,7.832
		c8.572,4.357,19.221,4.734,31.65,1.127l24.301-7.273c5.494-1.645,11.012-3.271,16.531-4.898c5.193-1.531,10.387-3.063,15.561-4.609
		c-1.244-5.263-2.508-10.543-3.771-15.822c-1.34-5.592-2.68-11.183-3.992-16.756l-5.826-24.697
		c-2.695-11.013-8.213-19.821-16.867-26.924c-4.121-3.383-9.025-5.697-14.217-8.15c-2.504-1.182-5.084-2.409-7.68-3.795
		L453.001,342.532z"/>
	<polygon fill="#939395" points="296.794,383.3 335.861,416.193 344.996,364.888 318.662,364.888 	"/>
	<polygon fill="#939395" points="292.019,237.576 267.923,228.851 255.186,250.913 	"/>
	<polygon fill="#939395" points="252.082,252.037 265.893,228.117 217.839,210.717 226.824,261.183 	"/>
	<polygon fill="#939395" points="216.282,318.296 190.61,362.761 242.75,362.761 238.104,336.667 	"/>
	<polygon fill="#939395" points="229.882,290.489 225.174,264.042 176.204,281.772 215.71,315.036 	"/>
	<polygon fill="#939395" points="334.648,250.75 322.066,228.958 298.265,237.577 	"/>
	<polygon fill="#939395" points="320.986,227.088 294.964,182.016 269.003,226.981 295.141,236.446 	"/>
	<polygon fill="#939395" points="245.288,364.888 254.422,416.193 293.49,383.3 271.623,364.888 	"/>
	<polygon fill="#939395" points="363.46,261.183 372.445,210.717 324.097,228.223 337.753,251.874 	"/>
	<polygon fill="#939395" points="321.185,362.761 345.375,362.761 349.638,338.806 	"/>
	<polygon fill="#939395" points="274.925,364.888 295.142,381.91 315.359,364.888 	"/>
	<polygon fill="#939395" points="240.644,338.806 244.909,362.761 269.097,362.761 	"/>
</g>
<g id="path">
	<path fill="#2D2D2E" d="M402.242,363.826c0-0.264-0.096-0.503-0.254-0.688l-26.574-46.03l41.443-34.893
		c0.291-0.244,0.43-0.625,0.361-1c-0.066-0.374-0.326-0.684-0.684-0.814l-51.047-18.484l9.371-52.641
		c0.066-0.374-0.07-0.755-0.361-1c-0.289-0.245-0.689-0.314-1.047-0.187l-50.436,18.262l-27.131-46.994
		c-0.381-0.659-1.462-0.658-1.842,0l-27.07,46.888l-50.141-18.156c-0.357-0.13-0.756-0.059-1.046,0.187
		c-0.291,0.245-0.429,0.625-0.362,1l9.372,52.641L173.748,280.4c-0.357,0.129-0.618,0.439-0.685,0.813
		c-0.067,0.374,0.071,0.755,0.362,1l41.205,34.692l-26.783,46.389c-0.19,0.329-0.19,0.733,0,1.063
		c0.19,0.328,0.541,0.531,0.92,0.531h54.36l9.523,53.49c0.066,0.373,0.328,0.684,0.685,0.811c0.118,0.044,0.24,0.064,0.362,0.064
		c0.247,0,0.49-0.086,0.685-0.25l40.759-34.314l40.759,34.314c0.193,0.164,0.438,0.25,0.686,0.25c0.121,0,0.244-0.021,0.361-0.064
		c0.355-0.129,0.617-0.438,0.686-0.811l9.521-53.49h54.004c0.008,0,0.016,0.002,0.021,0
		C401.767,364.888,402.242,364.412,402.242,363.826z M414.08,281.773l-39.746,33.463l-14.018-24.277l4.793-26.917L414.08,281.773z
		 M237.522,333.398l-20.16-16.973l13.099-22.688L237.522,333.398z M227.202,263.307l23.229-8.411l-18.899,32.734L227.202,263.307z
		 M232.112,290.88l21.424-37.107l41.606-15.065l41.156,14.903l21.789,37.74l-7.867,44.188l-32.334,27.225h-45.488l-32.336-27.225
		L232.112,290.88z M339.402,254.732l23.68,8.574l-4.414,24.793L339.402,254.732z M359.74,294.208l12.943,22.418l-19.922,16.771
		L359.74,294.208z M372.445,210.717l-8.984,50.466l-25.707-9.309l-13.656-23.651L372.445,210.717z M334.648,250.75l-36.383-13.174
		l23.801-8.619L334.648,250.75z M294.964,182.016l26.021,45.072l-25.845,9.358l-26.138-9.464L294.964,182.016z M267.923,228.851
		l24.096,8.725l-36.833,13.337L267.923,228.851z M217.839,210.717l48.054,17.4l-13.811,23.92l-25.258,9.146L217.839,210.717z
		 M176.204,281.772l48.97-17.731l4.708,26.447l-14.172,24.547L176.204,281.772z M190.61,362.761l25.672-44.465l21.822,18.371
		l4.646,26.094H190.61z M240.644,338.806l28.453,23.955h-24.188L240.644,338.806z M254.422,416.193l-9.134-51.305h26.335
		L293.49,383.3L254.422,416.193z M274.925,364.888h40.434l-20.217,17.021L274.925,364.888z M335.861,416.193L296.794,383.3
		l21.867-18.412h26.334L335.861,416.193z M345.375,362.761h-24.189l28.453-23.955L345.375,362.761z M347.535,362.761l4.646-26.094
		l21.582-18.171l25.555,44.265H347.535z"/>
	<path fill="#2D2D2E" d="M543.544,257.958c-4.584-3.412-9.195-6.822-13.809-10.232c-4.646-3.434-9.291-6.868-13.906-10.304
		l-20.361-15.158c-9.541-6.981-19.83-10.322-31.523-10.169c-5.592,0.066-10.959,1.483-16.643,2.983
		c-1.947,0.514-3.943,1.035-5.986,1.516c2.186-2.261,4.566-4.367,6.893-6.418c3.803-3.355,7.734-6.825,10.688-10.914
		c5.953-8.247,8.102-19.219,6.381-32.621l-3.439-25.141c-0.775-5.681-1.531-11.383-2.287-17.085
		c-0.756-5.701-1.512-11.403-2.289-17.083l-0.135-0.993l-0.998,0.077c-5.723,0.44-11.465,0.901-17.207,1.362
		c-5.734,0.46-11.467,0.921-17.18,1.36l-25.309,1.947c-11.781,1.003-21.74,5.269-30.449,13.041
		c-4.174,3.725-7.291,8.32-10.592,13.185c-1.104,1.629-2.24,3.293-3.432,4.957c0.289-2.881,0.805-5.583,1.313-8.216
		c0.875-4.525,1.701-8.799,1.434-13.794c-0.547-10.158-5.77-20.045-15.523-29.392l-18.465-17.404
		c-4.172-3.932-8.34-7.893-12.508-11.854c-4.17-3.963-8.34-7.927-12.514-11.86l-0.729-0.688l-0.729,0.688
		c-4.164,3.924-8.331,7.878-12.498,11.833c-4.185,3.971-8.369,7.941-12.55,11.882l-18.472,17.41
		c-8.537,8.18-13.608,17.754-15.503,29.271c-0.909,5.521-0.449,11.055,0.039,16.913c0.163,1.958,0.324,3.963,0.441,6.002
		c-1.639-2.403-2.983-4.816-4.291-7.172c-2.237-4.03-4.351-7.836-7.766-11.492c-6.945-7.434-17.297-11.657-30.778-12.553
		l-25.332-1.475c-5.737-0.334-11.491-0.693-17.245-1.053c-5.728-0.357-11.455-0.715-17.166-1.047l-1-0.059L132,109.204
		c-0.671,5.693-1.326,11.412-1.98,17.131c-0.655,5.72-1.31,11.439-1.981,17.135l-2.971,25.209
		c-1.287,11.752,0.978,22.348,6.923,32.392c2.85,4.814,6.756,8.757,10.893,12.933c1.383,1.396,2.794,2.83,4.195,4.318
		c-2.808-0.791-5.385-1.775-7.893-2.743c-4.261-1.644-8.286-3.197-13.249-3.805c-10.099-1.237-20.745,2.173-31.654,10.144
		l-20.365,15.138c-4.591,3.413-9.21,6.816-13.83,10.221c-4.641,3.42-9.282,6.84-13.895,10.269l-0.804,0.598l0.549,0.838
		c3.141,4.792,6.31,9.593,9.479,14.396c3.173,4.808,6.347,9.615,9.491,14.414l13.912,21.232
		c6.562,9.836,15.102,16.503,26.109,20.383c5.277,1.859,10.805,2.374,16.658,2.918c1.962,0.184,3.97,0.375,6.005,0.618
		c-2.67,1.208-5.292,2.114-7.852,2.993c-4.338,1.492-8.437,2.902-12.628,5.629c-8.526,5.547-14.484,15.008-17.71,28.129
		l-5.854,24.689c-1.324,5.584-2.676,11.182-4.028,16.776c-1.349,5.586-2.698,11.172-4.02,16.745l-0.231,0.975l0.959,0.288
		c5.487,1.649,11.002,3.288,16.517,4.925c5.522,1.641,11.044,3.279,16.539,4.932l24.31,7.307c5.073,1.479,10.039,2.221,14.958,2.221
		c6.088,0,12.102-1.135,18.144-3.408c5.237-1.971,9.801-5.133,14.632-8.48c1.622-1.125,3.286-2.271,5.003-3.396
		c-1.27,2.672-2.705,5.109-4.11,7.482c-2.388,4.031-4.643,7.84-6.089,12.633c-2.938,9.74-1.39,20.813,4.607,32.918l11.45,22.645
		c2.586,5.115,5.16,10.26,7.733,15.4c2.574,5.145,5.149,10.289,7.737,15.408l0.452,0.895l0.919-0.398
		c5.268-2.283,10.55-4.594,15.832-6.904c5.266-2.303,10.533-4.607,15.786-6.883l23.29-10.096c10.81-4.793,18.833-12.072,24.53-22.26
		c2.731-4.881,4.179-10.24,5.711-15.916c0.516-1.908,1.048-3.859,1.637-5.832c0.762,2.887,1.25,5.721,1.723,8.484
		c0.77,4.5,1.564,9.154,3.553,13.756c4.033,9.338,12.355,16.803,24.746,22.189l23.354,9.926c5.275,2.242,10.559,4.514,15.84,6.785
		c5.285,2.271,10.57,4.545,15.85,6.789l0.922,0.391l0.447-0.896c2.537-5.105,5.064-10.242,7.596-15.379
		c2.559-5.191,5.115-10.385,7.682-15.547l11.293-22.732c5.172-10.631,6.609-21.369,4.396-32.83
		c-1.061-5.494-3.41-10.523-5.896-15.852c-0.822-1.762-1.65-3.582-2.461-5.436c2.359,1.695,4.439,3.498,6.467,5.26
		c3.465,3.012,6.736,5.857,11.193,8.123c4.994,2.539,10.627,3.811,16.848,3.811c5.074,0,10.539-0.848,16.367-2.539l24.311-7.275
		c5.492-1.646,11.008-3.271,16.521-4.896c5.52-1.627,11.037-3.254,16.531-4.898l0.959-0.287l-0.229-0.976
		c-1.318-5.59-2.662-11.196-4.006-16.806c-1.338-5.588-2.678-11.178-3.99-16.748l-5.828-24.706
		c-2.813-11.484-8.563-20.666-17.584-28.07c-4.324-3.549-9.344-5.919-14.658-8.429c-1.783-0.842-3.607-1.709-5.439-2.633
		c2.934-0.229,5.729-0.188,8.453-0.148c4.627,0.069,8.994,0.137,13.867-0.998c9.908-2.308,18.734-9.17,26.24-20.404l13.922-21.212
		c3.146-4.792,6.32-9.586,9.496-14.381c3.176-4.796,6.354-9.593,9.5-14.388l0.549-0.838L543.544,257.958z M357.152,138.506
		c3.225-4.753,6.27-9.242,10.246-12.792c8.354-7.454,17.91-11.545,29.205-12.508l25.299-1.946c5.717-0.439,11.451-0.9,17.189-1.361
		c5.406-0.434,10.811-0.868,16.199-1.285c0.729,5.349,1.439,10.715,2.15,16.082c0.756,5.705,1.514,11.411,2.289,17.094l3.439,25.132
		c1.646,12.84-0.371,23.303-5.998,31.098c-2.813,3.896-6.482,7.134-10.369,10.563c-2.941,2.595-5.957,5.287-8.617,8.298
		l-8.223-6.811c2.455-4.752,4.201-10.025,5.445-16.494c2.658-13.814,2.141-22.48,0.992-36.607
		c-0.801-9.862-1.021-20.154,5.611-28.148c0.041-0.049,0.082-0.098,0.123-0.147l-1.631-1.364c-0.043,0.049-0.084,0.099-0.125,0.147
		c-6.688,7.931-16.865,9.529-26.727,10.485c-14.105,1.368-22.729,2.387-35.855,7.445c-6.316,2.434-11.297,5.164-15.615,8.539
		l-10.041-8.316C353.941,143.225,355.574,140.829,357.152,138.506z M372.851,162.763l-8.992-7.449
		c4.066-3.112,8.768-5.658,14.701-7.945c12.896-4.968,20.973-5.924,35.299-7.312c7.928-0.769,16.063-1.948,22.674-6.347
		c-3.17,7.286-2.895,15.498-2.252,23.43c1.164,14.346,1.65,22.463-0.961,36.034c-1.17,6.074-2.783,11.047-5.031,15.509
		l-10.979-9.094l-1.455-40.377L372.851,162.763z M415.117,197.772l-39.924-33.069l38.617-3.189L415.117,197.772z M237.311,120.488
		c1.818-11.046,6.684-20.231,14.87-28.075l18.465-17.404c4.183-3.942,8.369-7.915,12.556-11.887
		c3.922-3.722,7.844-7.444,11.764-11.141c3.928,3.706,7.854,7.437,11.779,11.167c4.17,3.963,8.34,7.927,12.514,11.86l18.459,17.398
		c9.346,8.955,14.346,18.364,14.863,27.965c0.256,4.734-0.547,8.884-1.396,13.277c-0.67,3.471-1.355,7.057-1.535,11.066
		l-10.771,0.068c-1.176-5.145-3.207-10.249-6.359-15.932c-6.826-12.303-12.783-18.616-22.727-28.716
		c-6.941-7.052-13.717-14.804-13.758-25.191c0-0.063,0-0.127-0.002-0.191h-2.125c0,0.063,0,0.127,0,0.191
		c-0.041,10.374-6.823,18.132-13.772,25.191c-9.943,10.1-15.901,16.413-22.727,28.716c-3.266,5.889-5.33,11.155-6.482,16.491
		l-12.999,0.083c-0.099-2.939-0.328-5.788-0.557-8.546C236.895,131.156,236.445,125.749,237.311,120.488z M294.966,116.115
		l-27.958,29.125l-13.902,0.088c1.126-4.97,3.094-9.916,6.162-15.445c6.705-12.085,12.286-18,22.382-28.256
		c5.587-5.675,11.071-11.801,13.319-19.416c2.245,7.623,7.724,13.745,13.306,19.416c10.098,10.256,15.68,16.17,22.383,28.256
		c2.959,5.333,4.9,10.123,6.047,14.915l-14.418,0.091L294.966,116.115z M319.373,144.908l-49.397,0.313l24.983-26.027
		L319.373,144.908z M144.39,212.507c-4.038-4.081-7.854-7.934-10.57-12.521c-5.703-9.633-7.874-19.799-6.64-31.068l2.97-25.2
		c0.671-5.697,1.327-11.42,1.981-17.143c0.616-5.383,1.232-10.766,1.862-16.128c5.376,0.316,10.766,0.652,16.156,0.989
		c5.757,0.359,11.514,0.719,17.253,1.053l25.323,1.475c12.916,0.859,22.792,4.857,29.356,11.883
		c3.237,3.465,5.289,7.16,7.461,11.072c1.708,3.077,3.478,6.25,5.899,9.423l-9.825,8.351c-4.364-3.311-9.377-5.968-15.717-8.311
		c-13.196-4.875-21.831-5.776-35.956-6.949c-9.861-0.818-20.053-2.277-26.858-10.125c-0.042-0.049-0.083-0.097-0.125-0.145
		l-1.612,1.387c0.042,0.048,0.083,0.096,0.125,0.145c6.733,7.891,6.652,18.196,5.987,28.079
		c-0.951,14.142-1.351,22.814,1.499,36.591c1.325,6.404,3.126,11.623,5.615,16.312l-8.265,7.024
		C148.345,216.511,146.339,214.474,144.39,212.507z M174.071,159.213l-1.46,40.535l-12.377,10.52
		c-2.28-4.402-3.946-9.323-5.189-15.334c-2.799-13.533-2.425-21.657-1.459-36.018c0.532-7.947,0.695-16.168-2.567-23.406
		c6.672,4.315,14.819,5.383,22.75,6.042c14.343,1.19,22.431,2.035,35.395,6.824c5.956,2.201,10.687,4.677,14.793,7.728l-7.752,6.589
		L174.071,159.213z M213.917,164.637l-39.112,33.245l1.31-36.367L213.917,164.637z M121.78,330.203
		c-5.715-0.533-11.116-1.035-16.144-2.809c-10.558-3.721-18.751-10.117-25.043-19.549l-13.907-21.225
		c-3.146-4.801-6.321-9.61-9.495-14.42c-2.983-4.519-5.966-9.038-8.925-13.55c4.345-3.227,8.714-6.446,13.083-9.666
		c4.622-3.406,9.244-6.812,13.837-10.226l20.357-15.132c10.451-7.637,20.589-10.919,30.134-9.745
		c4.702,0.576,8.607,2.083,12.742,3.678c3.275,1.264,6.661,2.562,10.577,3.44l-2.143,12.619c-5.536,0.241-11.143,1.422-17.587,3.721
		c-13.25,4.728-20.451,9.577-32.038,17.74c-8.089,5.699-16.839,11.124-27.097,9.466c-0.063-0.01-0.125-0.021-0.188-0.031
		l-0.347,2.098c0.063,0.01,0.126,0.021,0.189,0.031c10.227,1.731,16.776,9.688,22.607,17.695
		c8.344,11.458,13.603,18.366,24.626,27.104c5.233,4.148,10.056,7.029,15.086,9.033l-1.812,10.672
		C127.381,330.73,124.537,330.458,121.78,330.203z M107.711,268.933l26.662,38.2l-1.902,11.201
		c-4.684-1.921-9.211-4.658-14.13-8.557c-10.829-8.584-15.755-15.056-24.228-26.69c-4.688-6.438-9.838-12.847-16.984-16.306
		c7.886-0.971,14.82-5.379,21.326-9.963c11.766-8.29,18.512-12.832,31.527-17.476c6.059-2.161,11.336-3.298,16.508-3.574
		l-1.654,9.735L107.711,268.933z M144.358,248.319l-9.478,55.825l-24.152-34.603L144.358,248.319z M180.117,434.908
		c-4.721,3.271-9.179,6.361-14.17,8.238c-10.477,3.941-20.865,4.313-31.75,1.141l-24.301-7.305
		c-5.497-1.65-11.021-3.293-16.546-4.934c-5.191-1.541-10.382-3.082-15.55-4.634c1.247-5.247,2.517-10.504,3.787-15.762
		c1.353-5.599,2.705-11.198,4.029-16.785l5.853-24.683c3.091-12.569,8.745-21.603,16.803-26.846
		c3.972-2.582,7.949-3.951,12.16-5.398c3.333-1.146,6.771-2.338,10.334-4.186l6.308,10.769c-4.175,3.772-7.773,8.327-11.296,14.317
		c-7.13,12.129-9.542,20.467-13.191,34.162c-2.548,9.561-5.783,19.334-14.708,24.645c-0.056,0.033-0.111,0.066-0.167,0.1l1.08,1.832
		c0.055-0.031,0.111-0.064,0.166-0.1c8.956-5.231,19.083-3.332,28.693-0.932c12.628,3.153,20.798,5.035,32.933,5.035
		c1.082,0,2.196-0.016,3.347-0.046c6.841-0.18,12.498-1.103,17.75-2.875l5.562,9.492
		C184.745,431.709,182.392,433.33,180.117,434.908z M131.463,396.921l42.824,11.122l6.293,10.743
		c-4.93,1.611-10.268,2.457-16.707,2.627c-13.814,0.368-21.742-1.439-35.708-4.927c-7.727-1.931-15.789-3.545-23.49-1.61
		c5.426-5.805,7.916-13.635,9.965-21.324c3.706-13.906,5.965-21.719,12.97-33.633c3.317-5.64,6.692-9.949,10.565-13.516l5.85,9.986
		L131.463,396.921z M145.481,358.874l27.288,46.578l-38.616-10.028L145.481,358.874z M292.127,477.63
		c-1.497,5.543-2.912,10.777-5.514,15.432c-5.464,9.771-13.163,16.754-23.528,21.35l-23.282,10.092
		c-5.255,2.275-10.523,4.582-15.792,6.887c-4.973,2.176-9.945,4.352-14.906,6.502c-2.434-4.82-4.858-9.662-7.281-14.506
		c-2.575-5.145-5.149-10.289-7.737-15.406l-11.446-22.637c-5.746-11.6-7.25-22.148-4.473-31.355
		c1.372-4.545,3.563-8.244,5.884-12.164c1.824-3.076,3.7-6.26,5.231-9.971l11.277,4.023c-0.81,5.625-0.652,11.477,0.501,18.4
		c2.312,13.875,5.812,21.82,11.801,34.668c4.18,8.969,7.969,18.541,4.53,28.342c-0.021,0.061-0.043,0.121-0.064,0.182l2.003,0.711
		c0.021-0.061,0.043-0.121,0.064-0.182c3.512-9.76,12.5-14.801,21.411-19.123c12.75-6.189,20.478-10.145,31.029-19.451
		c5.228-4.613,9.024-9.025,11.935-13.857l10.741,3.832C293.603,472.197,292.849,474.957,292.127,477.63z M229.401,478.933
		l41.562-17.936l10.756,3.838c-2.767,4.498-6.365,8.646-11.292,12.994c-10.365,9.143-17.604,12.848-30.551,19.133
		c-7.165,3.477-14.383,7.412-19.05,13.834c0.437-7.934-2.676-15.535-6.039-22.75c-6.081-13.045-9.359-20.488-11.631-34.117
		c-1.086-6.527-1.256-12.049-0.547-17.32l12.496,4.459L229.401,478.933z M217.731,442.003l50.295,17.945l-37.423,16.148
		L217.731,442.003z M189.402,429.64l-57.12-97.498l18.915-111.404l86.099-73.183l112.996-0.717l87.021,72.082l20.328,111.155
		l-55.877,98.217L295.83,467.613L189.402,429.64z M482.214,268.933l-37.977-23.967l-2.01-10.993
		c5.193,0.199,10.502,1.263,16.613,3.348c13.078,4.464,19.887,8.913,31.766,17.039c6.574,4.497,13.572,8.812,21.465,9.679
		c-7.105,3.556-12.164,10.031-16.76,16.528c-8.311,11.749-13.146,18.286-23.857,27.022c-4.912,4.006-9.445,6.821-14.152,8.81
		l-1.705-9.329L482.214,268.933z M455.058,304.124l-10.299-56.317l34.438,21.734L455.058,304.124z M458.462,396.921l-12.838-41.424
		l6.299-11.072c3.936,3.519,7.379,7.789,10.783,13.399c7.17,11.817,9.537,19.597,13.434,33.45
		c2.158,7.666,4.756,15.467,10.254,21.195c-7.729-1.832-15.766-0.11-23.459,1.924c-13.914,3.681-21.816,5.582-35.637,5.42
		c-6.502-0.082-11.891-0.865-16.877-2.438l5.324-9.359L458.462,396.921z M417.212,405.439l26.971-47.407l11.59,37.392
		L417.212,405.439z M371.462,509.847c-4.754-6.365-12.021-10.199-19.229-13.576c-13.033-6.104-20.322-9.709-30.811-18.707
		c-5.014-4.301-8.684-8.42-11.518-12.908l9.426-3.5l41.193,17.777l14.52-38.455l13.621-5.057c0.779,5.26,0.686,10.779-0.311,17.314
		c-2.082,13.656-5.258,21.146-11.158,34.277C373.933,494.277,370.923,501.927,371.462,509.847z M322.214,460.085l50.188-18.627
		l-13.08,34.641L322.214,460.085z M405.388,438.335c2.434,5.203,4.729,10.117,5.74,15.354c2.123,10.992,0.742,21.295-4.219,31.488
		l-11.289,22.727c-2.566,5.164-5.125,10.359-7.684,15.553c-2.381,4.834-4.762,9.666-7.148,14.477
		c-4.969-2.115-9.943-4.254-14.918-6.393c-5.285-2.273-10.57-4.547-15.85-6.789l-23.344-9.922
		c-11.871-5.162-19.822-12.254-23.637-21.082c-1.887-4.365-2.625-8.691-3.406-13.27c-0.611-3.578-1.25-7.27-2.473-11.094
		l10.701-3.973c2.982,4.822,6.854,9.201,12.174,13.766c10.676,9.16,18.459,13.008,31.295,19.02
		c8.959,4.197,18.008,9.109,21.656,18.832c0.023,0.063,0.047,0.121,0.068,0.182l1.992-0.738c-0.021-0.061-0.043-0.121-0.066-0.18
		c-3.568-9.74,0.094-19.373,4.152-28.408c5.811-12.932,9.201-20.924,11.32-34.826c1.057-6.934,1.135-12.783,0.25-18.393
		l11.197-4.158C403.015,433.232,404.216,435.826,405.388,438.335z M466.851,335.482c5.191,2.453,10.096,4.768,14.217,8.15
		c8.654,7.103,14.172,15.911,16.867,26.924l5.826,24.697c1.313,5.573,2.652,11.164,3.992,16.756
		c1.264,5.279,2.527,10.56,3.771,15.822c-5.174,1.547-10.367,3.078-15.561,4.609c-5.52,1.627-11.037,3.254-16.531,4.898
		l-24.301,7.273c-12.43,3.607-23.078,3.23-31.65-1.127c-4.225-2.146-7.398-4.908-10.762-7.832c-2.662-2.313-5.414-4.696-8.797-6.857
		l5.422-9.529c5.313,1.73,11.023,2.586,17.926,2.672c0.563,0.009,1.111,0.012,1.654,0.012c13.094,0,21.396-2.021,34.553-5.501
		c9.566-2.528,19.656-4.567,28.695,0.548c0.057,0.032,0.111,0.064,0.168,0.096l1.055-1.846c-0.057-0.031-0.111-0.064-0.168-0.096
		c-8.984-5.182-12.357-14.918-15.041-24.453c-3.838-13.643-6.363-21.947-13.662-33.979c-3.613-5.957-7.285-10.47-11.523-14.188
		l6.17-10.845C461.767,333.073,464.347,334.3,466.851,335.482z M532.525,272.608c-3.176,4.796-6.354,9.593-9.5,14.388
		l-13.918,21.206c-7.189,10.764-15.584,17.326-24.949,19.508c-4.619,1.075-8.859,1.012-13.354,0.942
		c-3.543-0.052-7.203-0.101-11.184,0.42l-1.928-10.535c5.057-2.077,9.881-5.041,15.105-9.302
		c10.904-8.895,16.064-15.873,24.25-27.443c5.713-8.078,12.146-16.115,22.361-17.991c0.063-0.011,0.125-0.022,0.189-0.034
		l-0.375-2.092c-0.063,0.011-0.125,0.022-0.188,0.034c-10.215,1.786-19.055-3.513-27.23-9.105
		c-11.699-8.003-18.967-12.752-32.279-17.296c-6.498-2.217-12.139-3.321-17.693-3.479l-2.314-12.657
		c2.879-0.609,5.646-1.331,8.324-2.038c5.553-1.465,10.795-2.849,16.125-2.913c11.207-0.129,21.088,3.06,30.236,9.754l20.354,15.152
		c4.617,3.438,9.264,6.873,13.912,10.309c4.34,3.209,8.682,6.418,12.998,9.629C538.505,263.579,535.515,268.095,532.525,272.608z"/>
	<circle fill="#2D2D2E" cx="294.965" cy="326.025" r="5.783"/>
	<path fill="#2D2D2E" d="M294.957,350.388c25.656,0,46.527-20.871,46.527-46.526c0-25.654-20.871-46.526-46.527-46.526
		c-25.655,0-46.527,20.872-46.527,46.53C248.431,329.519,269.304,350.388,294.957,350.388z M294.964,275.904
		c3.193,0,5.783,2.589,5.783,5.783c0,3.194-2.59,5.783-5.783,5.783c-3.194,0-5.783-2.59-5.783-5.783
		C289.18,278.493,291.769,275.904,294.964,275.904z M294.899,303.857c12.243,0,22.168-9.926,22.168-22.169
		c0-12.243-9.926-22.168-22.168-22.168c24.487,0,44.336,19.847,44.338,44.333v0.004c0,24.486-19.852,44.337-44.338,44.337
		c-12.243,0-22.168-9.927-22.168-22.169C272.731,313.782,282.656,303.857,294.899,303.857z"/>
</g>
</svg>
