<svg xmlns="http://www.w3.org/2000/svg" version="1.1" viewBox="0 0 461.868 460.641">
	<g id="editable">
		<path fill="#939395" d="M241.434,290.137c-1.172,6.875-4.08,13.449-6.175,20.17c-0.687,2.203-3.66,3.898-1.548,6.736   c2.607,3.51,4.909,7.316,7.918,10.439c4.77,4.947,10.017,9.436,15.062,14.117c1.639-27.547-2.803-53.375-12.935-78.451   C243.027,272.391,242.925,281.381,241.434,290.137z"
		/>
		<path fill="#939395" d="M256.289,200.778c3.75-2.097,6.478-3.844,9.387-5.208c8.964-4.203,18.121-7.665,28.214-8.247   c2.659-0.154,6.097,0.048,7.744-3.2c4.531-8.934,8.18-18.159,9.507-28.62C290.254,167.56,271.913,181.677,256.289,200.778z"
		/>
		<path fill="#939395" d="M326.73,192.137c-5.511-1.229-11.158-2.203-16.782-2.445c-4.298-0.184-8.076,0.668-11.055,5.427   c-5.267,8.42-12.435,15.494-20.819,21.082c-4.314,2.875-8.767,5.545-13.324,8.414c15.256,0.646,61.07-16.771,75.261-28.053   C335.226,194.93,331.073,193.104,326.73,192.137z"
		/>
		<path fill="#939395" d="M147.349,405.639c14.699-32.121,41.76-52.973,77.842-55.084c40.861-2.391,70.825,16.803,89.777,53.27   c-1.7-21.908-8.031-42.436-18.069-61.996c-10.095-19.672-23.743-36.363-41.153-51.393c3.692,18.826,6.05,36.807,4.465,55.047   c-0.433,0.299-0.863,0.6-1.294,0.898c-5.19-4.146-10.729-7.936-15.469-12.543c-4.759-4.627-8.722-10.072-13.121-15.266   c-5.708,10.088-14.138,17.453-23.106,24.277c-0.943,0.719-2.291,0.906-3.451,1.34c-0.334-1.199-0.924-2.391-0.963-3.6   c-0.492-15.613,1.162-31.037,4.219-46.334c0.326-1.633,0.438-3.309,0.754-5.801C171.669,319.995,151.524,358.715,147.349,405.639z"
		/>
		<path fill="#939395" d="M119.587,70.836c20.48,32.206,25.076,65.245,5.588,99.439c-19.479,34.175-50.346,46.731-88.723,45.769   c42.695,18.399,85.553,20.052,130.047,4.73c-8.967-3.697-17.123-6.777-25.035-10.398c-8.041-3.682-15.84-7.895-23.746-11.873   c0.002-0.507,0.004-1.015,0.004-1.521c5.771-2.095,11.428-4.643,17.346-6.163c6.084-1.562,12.424-2.123,18.699-3.13   c-1.943-4.88-4.297-9.489-5.596-14.378c-1.658-6.24-2.504-12.701-3.602-19.083c-0.217-1.264,0.01-2.604,0.029-3.909   c1.697,0.154,3.619-0.149,5.041,0.556c3.436,1.703,6.715,3.76,9.914,5.887c7.613,5.063,15.164,10.219,22.693,15.407   c1.953,1.346,3.729,2.949,6.43,5.108c-4.721-25.879-14.85-48.269-29.744-68.392C147.985,94.092,134.827,81.333,119.587,70.836z"
		/>
		<path fill="#939395" d="M147.149,153.659c0.357,1.475,0.768,2.476,0.824,3.495c0.545,9.569,3.238,18.566,7.332,27.154   c0.938,1.968,1.902,3.946,4.9,4.126c5.281,0.315,10.635,0.787,15.766,2.004c11.422,2.71,21.949,7.619,31.563,14.405   c2.607,1.84,5.143,3.785,7.713,5.684C193.183,181.024,163.542,159.529,147.149,153.659z"
		/>
		<path fill="#939395" d="M205.649,340.418c9.137-6.678,16.662-13.877,21.957-23.148c0.549-0.961,0.561-2.568,0.191-3.664   c-1.99-5.912-4.758-11.625-6.145-17.66c-1.633-7.109-2.232-14.469-3.063-21.744c-0.322-2.816-0.053-5.701-0.053-8.555   C209.403,289.579,205.083,314.229,205.649,340.418z"
		/>
		<path fill="#939395" d="M233.332,228.955c27.834-2.729,50.521-13.947,64.543-39.34   C269.695,191.694,248.295,204.968,233.332,228.955z"
		/>
		<path fill="#939395" d="M251.653,184.212c-6.823-12.078-13.762-24.094-20.894-36.537c-0.903,0.628-1.696,0.89-1.995,1.427   c-7.625,13.696-15.219,27.407-22.754,41.151c-0.914,1.668-0.988,3.067,0.697,4.91c4.695,5.132,9.02,10.621,13.277,16.137   c3.783,4.896,7.283,10.016,11.079,15.275c1.412-1.967,2.587-3.846,3.998-5.527c6.182-7.367,12.344-14.752,18.704-21.963   c2.054-2.327,3.31-4.231,1.368-7.311C253.668,189.449,253.015,186.621,251.653,184.212z"
		/>
		<path fill="#939395" d="M227.11,228.496c-17.535-27.477-49.045-38.305-67.691-36.375   C175.452,218.521,210.263,232.442,227.11,228.496z"
		/>
		<path fill="#939395" d="M270.612,226.798c-4.015,1.301-8.329,1.771-12.552,2.311c-8.316,1.063-16.661,1.927-25.745,2.958   c2.837,5.598,5.547,10.463,7.81,15.529c3.15,7.059,5.924,14.285,8.99,21.383c0.302,0.699,1.507,1.408,2.308,1.426   c10.982,0.248,21.968,0.494,32.954,0.48c5.269-0.008,10.539-0.57,15.852-0.883c-0.138-0.709-0.125-0.977-0.236-1.172   c-7.628-13.244-15.246-26.492-22.919-39.714C275.622,226.615,273.799,225.763,270.612,226.798z"
		/>
		<path fill="#939395" d="M374.13,145.796c-15.953,4.56-31.627,2.931-47.57-1.137c4.196,16.77,11.954,30.99,24.629,43.41   C355.753,171.73,362.979,157.83,374.13,145.796z"
		/>
		<path fill="#939395" d="M303.337,273.758c-12.106,0.055-24.211,0.035-36.317,0.035h-6.954c-0.046,0.354-0.092,0.707-0.138,1.059   c47.075,18.381,94.151,36.76,141.226,55.139c0.155-0.291,0.31-0.582,0.464-0.873c-38.757-31.877-77.514-63.754-116.271-95.631   c-0.261,0.268-0.523,0.537-0.784,0.805c2.3,3.98,4.563,7.984,6.909,11.938c4.71,7.936,9.491,15.83,14.163,23.787   c0.48,0.82,0.874,2.236,0.485,2.871C305.729,273.52,304.308,273.752,303.337,273.758z"
		/>
		<path fill="#939395" d="M231.086,310.997c12.773-19.48,12.296-56.094-0.609-76.215C220.46,248.469,215.146,283.024,231.086,310.997   z"
		/>
		<path fill="#939395" d="M340.637,69.839c-38.811,27.596-62.347,64.754-71.142,112.485c14.423-12.584,29.003-23.174,45.882-32.507   c-1.633,13.673-5.099,25.602-11.924,36.588c5.897,0.395,11.509,0.08,16.771,1.284c7.418,1.697,14.589,4.489,21.838,6.896   c0.894,0.297,2.313,1.182,2.266,1.677c-0.095,0.979-0.829,2.222-1.678,2.747c-4.001,2.478-7.974,5.091-12.24,7.03   c-11.67,5.307-23.482,10.299-35.36,15.469c43.555,14.813,86.383,12.864,128.424-6.082c-38.809,2.348-70.19-10.924-89.792-45.447   C314.175,135.623,318.242,101.875,340.637,69.839z"
		/>
		<path fill="#939395" d="M78.741,141.447c2.096,1.733,4.67,3.467,7.25,3.922c6.742,1.192,13.631,2.45,20.418,2.256   c8.781-0.253,17.52-1.892,26.479-2.956c0.785-6.832,2.412-13.008,1.971-19.031c-0.652-8.888-1.813-17.974-4.492-26.426   c-4.455-14.053-11.881-26.634-23.162-36.6c-0.723-0.638-0.648-2.182-0.928-3.325c-0.227-0.047-0.521-0.179-0.635-0.087   c-6.148,5.011-12.654,9.657-18.324,15.163c-7.82,7.592-15.379,15.523-22.365,23.881c-6.584,7.878-12.281,16.495-18.514,24.983   c1.975,1.029,3.061,1.773,4.262,2.191C61.052,129.014,70.304,134.468,78.741,141.447z"
		/>
		<path fill="#939395" d="M158.923,269.075c5.652-10.217,11.281-20.449,16.883-30.695c0.527-0.965,0.83-2.053,1.238-3.084   c-0.205-0.127-0.41-0.254-0.613-0.383c-38.029,31.477-76.061,62.953-114.09,94.428c0.162,0.285,0.322,0.568,0.482,0.852   c46.148-18.002,92.299-36.004,138.447-54.006c-0.084-0.307-0.168-0.613-0.254-0.922c-3.273-0.248-6.553-0.736-9.824-0.699   c-10.658,0.117-21.314,0.467-31.975,0.602c-1.014,0.014-2.426-0.602-2.924-1.387c-0.32-0.508,0.619-1.902,1.133-2.818   C157.815,270.27,158.542,269.768,158.923,269.075z"
		/>
		<path fill="#939395" d="M153.468,191.071c-5.281,0.489-10.588,1.046-15.773,2.123c-4.814,0.999-9.486,2.684-14.9,4.266   c20.301,13.509,55.834,25.097,68.205,25.767c-4.143-2.412-7.75-4.066-10.846-6.4c-8.994-6.783-17.316-14.273-23.369-23.981   C156.192,191.896,154.536,190.971,153.468,191.071z"
		/>
		<path fill="#939395" d="M68.761,137.557c-3.605-1.966-7.213-3.933-10.82-5.9c-0.172,0.295-0.344,0.59-0.516,0.884   C61.03,134.584,64.208,137.537,68.761,137.557z"
		/>
		<path fill="#939395" d="M214.321,267.2c3.143-8.684,6.5-17.289,9.793-25.92c1.143-2.992,2.34-5.965,3.381-8.619   c-3.934-0.713-7.551-1.32-11.145-2.04c-2.973-0.594-5.893-1.529-8.889-1.941c-5.252-0.719-10.676-0.617-15.781-1.867   c-4.34-1.063-5.902,0.871-7.611,4.045c-5.521,10.253-11.227,20.407-16.809,30.626c-1.639,3.002-3.104,6.102-4.799,9.453   c15.898,0,31.234-0.105,46.566,0.09C212.149,271.065,213.353,269.879,214.321,267.2z"
		/>
		<path fill="#939395" d="M87.259,148.685c4.133,6.159,8.854,12.158,12.406,18.784c3.543,6.605,5.912,13.84,8.775,20.752   c11.475-11.343,19.486-24.865,23.434-40.939C116.765,151.057,101.71,151.91,87.259,148.685z"
		/>
		<path fill="#939395" d="M236.401,45.733c1.188,6.969,2.569,13.905,3.752,20.876c1.125,6.631,2.051,13.295,3.159,19.93   c1.301,7.781,2.748,15.539,4.057,23.32c1.661,9.896,3.209,19.809,4.877,29.701c1.195,7.096,2.547,14.165,3.757,21.259   c1.247,7.313,2.407,14.638,3.603,21.956c0.413,2.525,0.822,5.049,1.407,8.65c2.103-2.808,4.172-4.616,4.972-6.873   c1.082-3.055,0.87-6.545,1.772-9.689c2.782-9.688,5.219-19.541,8.896-28.893c8.21-20.884,19.869-39.794,35.717-55.783   c6.961-7.022,14.769-13.245,22.486-19.465c5.571-4.49,11.629-8.377,17.481-12.541c-44.833-30.72-86.736-38.785-120.721-39.078   c0.495,1.944,1.053,3.622,1.342,5.345C234.145,31.537,235.193,38.648,236.401,45.733z"
		/>
		<path fill="#939395" d="M220.788,88.024c-0.707,4.304-1.51,8.593-2.193,12.902c-1.111,6.995-2.076,14.013-3.258,20.997   c-1.219,7.192-2.686,14.345-3.93,21.535c-1.445,8.357-2.807,16.729-4.127,25.109c-0.727,4.623-1.293,9.271-1.93,13.908   c0.297,0.031,0.592,0.06,0.889,0.089c0.619-1.095,1.234-2.188,1.854-3.282c2.475-4.37,5.031-8.695,7.406-13.118   c4.049-7.542,7.934-15.172,11.996-22.705c1.324-2.46,3.868-2.78,5.212-0.808c0.506,0.744,0.543,1.795,0.991,2.596   c4.696,8.357,9.391,16.72,14.176,25.026c2.449,4.257,5.081,8.41,7.63,12.61c0.127-3.166-0.438-6.039-0.887-8.927   c-1.087-6.993-2.019-14.014-3.2-20.989c-1.22-7.186-2.743-14.318-3.982-21.5c-1.199-6.957-2.16-13.954-3.311-20.917   c-1.251-7.566-2.614-15.113-3.907-22.671c-1.352-7.899-2.691-15.799-4.01-23.702c-1.087-6.511-2.111-13.033-3.21-19.541   c-0.723-4.263-1.53-8.512-2.3-12.769c-1.964,8.527-3.479,16.986-4.897,25.462C224.087,67.554,222.468,77.795,220.788,88.024z"
		/>
		<path fill="#939395" d="M338.65,78.47c-8.151,12.881-13.886,26.654-13.528,42.329c0.114,5.08,0.019,10.165,0.022,15.248   c0.004,4.997,0.542,5.86,5.37,6.661c9.649,1.598,19.253,4.11,29.165,2.22c5.65-1.078,11.453-1.733,16.862-3.551   c3.958-1.33,7.338-4.322,11.055-6.436c7.531-4.278,15.115-8.465,23.255-13.013c-3.377-5.015-6.603-10.311-10.333-15.222   c-4.862-6.404-10.11-12.517-15.214-18.737c-8.531-10.399-19.021-18.68-29.431-27.036c-0.4-0.32-1.642,0.011-2.248,0.408   C347.043,65.641,342.718,72.044,338.65,78.47z"
		/>
		<path fill="#939395" d="M189.89,22.976c-11.754,2.066-23.037,5.492-34.201,9.435c-13.098,4.628-25.434,10.918-37.219,18.244   c-4.186,2.603-8.059,5.705-12.072,8.583c0.686,0.045,1.504-0.088,1.969,0.254c9.402,6.919,19.129,13.463,28.039,20.971   c14.479,12.201,26.367,26.754,35.439,43.416c4.404,8.088,8.73,16.322,11.965,24.915c3.246,8.622,4.936,17.819,7.643,26.661   c0.865,2.834,0.705,6.274,3.896,8.217c1.762,1.069,3.154,2.75,4.951,4.374c0.621-2.833,1.258-5.388,1.732-7.971   c1.705-9.261,3.373-18.527,5.016-27.801c0.555-3.127,0.98-6.275,1.479-9.414c1.127-7.095,2.207-14.198,3.406-21.279   c1.201-7.09,2.561-14.15,3.779-21.235c1.336-7.771,2.576-15.56,3.891-23.334c1.082-6.384,2.293-12.75,3.303-19.146   c1.195-7.572,2.221-15.172,3.352-22.755c0.791-5.302,1.637-10.596,2.506-16.199c-1.402,0-2.348-0.027-3.293,0.005   C213.503,19.329,201.702,20.902,189.89,22.976z"
		/>
		<path fill="#939395" d="M344.824,33.083C309.581,12.667,271.495,2.091,230.809,2.476C166.702,3.079,111.368,26,66.897,72.174   C16.874,124.113-4.11,186.944,4.241,258.549c6.381,54.727,30.508,101.291,71.105,138.727   c47.225,43.547,103.633,63.844,167.433,60.555c64.5-3.326,118.793-30.094,161.143-79.111   c36.753-42.537,55.286-92.318,55.453-159.591c0.824-30.944-12.602-71.935-30.993-103.133   C407.795,81.074,379.907,53.407,344.824,33.083z M455.21,234.657c-0.581,54.75-19.759,103.381-56.514,144.012   c-48.774,53.922-110.479,79.209-182.869,74.771c-58.232-3.568-108.248-27.266-148.549-70.037   c-36.592-38.836-61.797-94.18-60.836-133.338c0.699-75.994,18.795-125.924,56.512-167.796   c46.291-51.386,104.953-76.258,173.937-75.39c53.679,0.678,101.244,19.422,141.426,54.805   C430.184,107.355,455.94,165.682,455.21,234.657z"
		/>
		<path fill="#939395" d="M207.093,10.484c-54.574,5.75-101.066,29.338-138.473,69.617C24.278,127.846,4.788,184.875,10.019,249.553   c4.652,57.527,29.184,106.303,72.115,144.844c45.699,41.025,99.979,59.354,167.345,56.436   c55.91-4.342,108.201-28.967,148.933-75.936c41.066-47.361,58.774-103.123,53.265-165.44   c-4.979-56.329-29.283-104.227-70.942-142.078C331.707,22.833,273.142,3.523,207.093,10.484z M376.714,75.081   c46.028,44.186,68.518,99.263,66.257,163.156c-1.688,47.689-18.185,90.709-49.006,127.328   c-42.102,50.021-96.833,76.545-161.802,76.998C108.251,443.424,16.149,345.428,15.54,222.281   c1.43-45.1,17.543-91.176,51.096-130.271c41.996-48.934,96.182-74.418,160.26-75.492C284.156,15.558,335.208,35.233,376.714,75.081   z"
		/>
		<path fill="#939395" d="M21.458,208.679c7.408,3.371,15.443,4.154,23.393,4.551c11.324,0.564,22.287-1.773,32.971-5.58   c9.135-3.256,17.309-8.062,24.832-14.123c2.354-1.897,2.777-3.911,1.623-6.561c-3.383-7.769-5.799-16.144-10.309-23.183   c-5.029-7.854-10.094-16.177-20.195-19.444c-10.686-3.458-19.861-9.865-28.635-17.412c-0.633,1.352-0.994,2.325-1.514,3.203   c-6.498,10.999-11.004,22.88-15.041,34.918c-2.232,6.657-3.885,13.537-5.352,20.414c-1.422,6.66-2.348,13.433-3.279,20.186   C19.821,206.603,20.636,208.304,21.458,208.679z"
		/>
		<path fill="#939395" d="M389.205,140.188c-3.607,2.202-7.708,3.8-10.844,6.525c-8.213,7.135-14.096,16.15-18.487,26.034   c-2.329,5.238-3.976,10.793-5.703,16.274c-0.254,0.807,0.463,2.346,1.211,2.979c15.037,12.742,32.496,19.76,52.127,20.443   c8.222,0.289,16.538-1.053,24.756-2.096c5.652-0.715,7.281-2.322,6.544-7.006c-1.603-10.193-3.079-20.517-6.035-30.357   c-3.379-11.245-8.161-22.086-12.633-32.978c-1.989-4.848-4.713-9.393-7.185-14.236c-1.451,0.773-2.203,1.123-2.905,1.556   C403.1,131.611,396.173,135.933,389.205,140.188z"
		/>
		<path fill="#939395" d="M227.601,410.727c0.885-7.092,1.387-13.428-1.404-20.434c-5.102-12.801-12.404-23.748-22.533-32.971   c-30.891,11.73-50.303,33.273-57.947,65.398c37.98,15.66,66.059,17.682,83.078,16.318c-0.186-2.07-0.445-4.152-0.541-6.244   C227.917,425.43,226.698,417.944,227.601,410.727z"
		/>
		<path fill="#939395" d="M169.146,328.856c8.707-14.236,19.373-26.68,31.605-37.967c4.227-3.902,10.031-7.029,10.189-14.129   c-0.469,0-0.99-0.141-1.391,0.021c-6.799,2.75-13.531,5.68-20.383,8.287c-11.494,4.371-23.113,8.41-34.582,12.834   c-12.33,4.756-24.527,9.852-36.822,14.695c-12.293,4.844-24.654,9.518-36.951,14.348c-7.715,3.031-15.389,6.172-23.041,9.359   c-2.734,1.139-5.352,2.559-8.086,3.879c28.119,44.643,67.475,71.229,93.035,80.877c0.826-7.967,1.26-15.809,2.535-23.508   c1.629-9.85,3.273-19.783,6.115-29.322C155.497,354.375,161.55,341.274,169.146,328.856z"
		/>
		<path fill="#939395" d="M182.208,225.441c-1.859-0.49-2.691-0.551-3.359-0.912c-4.725-2.564-9.168-2.398-14.176-0.104   c-4.855,2.223-10.225,3.467-15.482,4.633c-5.969,1.324-12.039,2.276-18.109,3.04c-7.059,0.885-14.16,1.861-21.252,1.934   c-7.889,0.082-15.805-0.617-23.676-1.35c-5.51-0.512-11.059-1.262-16.414-2.608c-7.48-1.881-14.922-4.082-22.15-6.766   c-6.953-2.582-13.592-6.004-20.414-8.955c-2.471-1.068-5.068-1.842-7.742-2.799c-5.311,48.913,11.658,100.411,28.9,125.153   c0.152-1.83,0.254-3.064,0.438-5.262c0.631,1.512,0.889,2.131,1.475,3.535C94.278,298.43,137.921,262.204,182.208,225.441z"
		/>
		<path fill="#939395" d="M436.688,212.808c-7.851,3.572-15.555,7.604-23.678,10.41c-8.98,3.102-18.257,5.609-27.596,7.338   c-9.971,1.845-20.146,3.179-30.266,3.433c-9.457,0.238-18.965-1.152-28.437-1.971c-10.023-0.865-19.755-3.171-29.132-6.778   c-5.782-2.225-11.374-3.225-17.017,0.307c43.97,36.021,87.926,72.028,132.707,108.714c5.793-13.475,11.827-26.223,16.732-39.393   c2.971-7.979,4.231-16.602,6.193-24.951c2.689-11.447,4.106-23.059,4.164-34.822c0.031-6.601,0.06-13.198-0.018-19.794   C440.304,211.912,439.51,211.525,436.688,212.808z"
		/>
		<path fill="#939395" d="M313.728,411.708c-3.142-11.738-9.937-21.451-17.683-30.398c-8.701-10.053-19.889-16.918-32.046-22.146   c-6.66-2.861-6.917-2.479-11.729,3.008c-5.847,6.664-10.823,13.916-14.272,21.99c-2.36,5.52-4.028,11.525-4.802,17.471   c-0.578,4.439,1.091,9.123,1.181,13.711c0.151,7.85-0.148,15.711-0.259,23.566c-0.361,0.064-0.723,0.131-1.084,0.197   c0.736,0.258,1.482,0.764,2.207,0.734c12.661-0.5,25.164-1.996,37.63-4.508c13.548-2.73,26.458-7.207,39.264-12.143   c4.748-1.83,4.716-2.01,3.28-6.92C314.96,414.719,314.146,413.266,313.728,411.708z"
		/>
		<path fill="#939395" d="M255.841,286.397c6.969,7.572,14.934,14.23,21.829,21.859c12.072,13.359,21.333,28.65,27.979,45.367   c3.243,8.156,5.828,16.633,7.98,25.146c1.955,7.729,3.045,15.686,4.274,23.58c0.866,5.559,1.328,11.18,2.01,17.111   c38.441-18.092,67.901-45.791,90.567-81.83c-52.916-21.256-105.351-42.465-158.879-61.611   C252.678,279.797,253.472,283.823,255.841,286.397z"
		/>
		<path fill="#939395" d="M252.995,355.928c-14.957-4.297-30.025-3.896-45.199,0.441c10.613,10.881,18.541,23.309,22.866,37.217   c3.116-6.408,5.858-13.096,9.507-19.246C243.908,368.034,248.533,362.254,252.995,355.928z"
		/>
	</g>
	<g id="border">
		<path fill="#2D2D2E" d="M386.605,59.986C343.29,19.938,290.941,0.082,222.81,0c-58.245,0.808-115.45,24.974-161.084,73.716    C14.515,124.144-5.44,184.922,1.263,253.647c5.778,59.26,31.41,109.355,76.045,148.664    c50.154,44.17,109.228,63.529,175.972,57.139c60.888-5.832,111.707-32.477,152.061-78.137    c35.448-40.111,54.453-87.563,56.356-141.065C464.232,168.927,438.735,108.182,386.605,59.986z M459.291,219.136    c-0.167,67.271-18.7,117.052-55.453,159.589c-42.35,49.018-96.643,75.785-161.143,79.111    c-63.799,3.289-120.207-17.008-167.433-60.555c-40.598-37.436-64.724-84-71.105-138.727    c-8.351-71.604,12.634-134.434,62.656-186.373c44.472-46.174,99.806-69.097,163.911-69.7    c40.687-0.384,78.772,10.191,114.016,30.608c35.083,20.324,62.971,47.991,83.558,82.913    C446.689,147.202,460.115,188.191,459.291,219.136z"
		/>
		<path fill="#2D2D2E" d="M378.232,61.692C338.051,26.309,290.485,7.564,236.807,6.887c-68.983-0.869-127.646,24.004-173.936,75.39    C25.153,124.149,7.058,174.078,6.359,250.071c-0.962,39.158,24.243,94.502,60.835,133.338    c40.302,42.771,90.317,66.469,148.55,70.037c72.39,4.438,134.094-20.85,182.868-74.771    c36.755-40.631,55.933-89.262,56.514-144.012C455.856,165.689,430.1,107.363,378.232,61.692z M398.327,374.903    c-40.731,46.969-93.022,71.594-148.933,75.936c-67.366,2.918-121.646-15.41-167.345-56.436    c-42.932-38.541-67.462-87.316-72.115-144.844c-5.23-64.676,14.261-121.705,58.602-169.45    c37.406-40.279,83.899-63.867,138.474-69.618c66.048-6.961,124.613,12.35,173.64,56.896    c41.659,37.851,65.963,85.749,70.942,142.078C457.102,271.78,439.394,327.542,398.327,374.903z"
		/>
		<path fill="#2D2D2E" d="M376.63,75.088c-41.506-39.847-92.558-59.523-149.818-58.563c-64.077,1.074-118.263,26.559-160.259,75.492    c-33.554,39.096-49.667,85.172-51.097,130.271c0.609,123.146,92.712,221.142,216.623,220.28    c64.969-0.453,119.7-26.977,161.802-76.998c30.821-36.619,47.318-79.639,49.006-127.327    C445.147,174.35,422.658,119.274,376.63,75.088z M352.254,58.189c-5.853,4.164-11.91,8.051-17.481,12.541    c-7.718,6.22-15.525,12.442-22.486,19.465c-15.848,15.989-27.507,34.899-35.717,55.783c-3.678,9.352-6.114,19.204-8.896,28.892    c-0.902,3.144-0.69,6.634-1.772,9.689c-0.8,2.257-2.869,4.066-4.972,6.874c-0.585-3.602-0.994-6.125-1.407-8.65    c-1.195-7.319-2.355-14.644-3.603-21.955c-1.21-7.094-2.562-14.163-3.757-21.259c-1.668-9.893-3.216-19.806-4.877-29.701    c-1.309-7.781-2.756-15.539-4.057-23.321c-1.108-6.634-2.034-13.298-3.159-19.929c-1.183-6.971-2.564-13.907-3.752-20.876    c-1.208-7.085-2.257-14.196-3.442-21.285c-0.289-1.723-0.847-3.401-1.342-5.345C265.518,19.404,307.421,27.469,352.254,58.189z     M333.598,169.987c19.602,34.524,50.983,47.795,89.792,45.448c-42.041,18.944-84.869,20.895-128.424,6.082    c11.878-5.17,23.69-10.162,35.36-15.469c4.267-1.939,8.239-4.553,12.24-7.031c0.849-0.525,1.583-1.769,1.678-2.747    c0.048-0.495-1.372-1.38-2.266-1.677c-7.249-2.407-14.42-5.199-21.838-6.896c-5.263-1.204-10.874-0.89-16.771-1.284    c6.825-10.987,10.291-22.915,11.924-36.587c-16.879,9.333-31.459,19.922-45.882,32.506c8.795-47.731,32.331-84.889,71.142-112.485    C318.158,101.883,314.091,135.63,333.598,169.987z M326.476,144.668c15.943,4.067,31.617,5.696,47.57,1.136    c-11.15,12.033-18.377,25.933-22.941,42.273C338.43,175.657,330.672,161.436,326.476,144.668z M305.551,270.022    c-4.672-7.957-9.453-15.852-14.163-23.787c-2.346-3.953-4.609-7.956-6.909-11.937c0.261-0.269,0.523-0.537,0.784-0.806    c38.757,31.877,77.514,63.754,116.271,95.631c-0.154,0.291-0.309,0.582-0.464,0.873c-47.074-18.379-94.15-36.758-141.226-55.139    c0.046-0.352,0.092-0.705,0.138-1.059h6.954c12.106,0,24.211,0.02,36.317-0.035c0.971-0.006,2.393-0.238,2.783-0.871    C306.425,272.258,306.031,270.842,305.551,270.022z M299.908,268.836c0.111,0.195,0.099,0.463,0.236,1.172    c-5.313,0.313-10.583,0.875-15.852,0.883c-10.986,0.014-21.972-0.232-32.954-0.48c-0.801-0.018-2.006-0.727-2.308-1.426    c-3.066-7.098-5.84-14.324-8.99-21.383c-2.263-5.066-4.973-9.931-7.81-15.529c9.084-1.03,17.429-1.894,25.745-2.956    c4.223-0.539,8.537-1.01,12.552-2.311c3.187-1.035,5.01-0.184,6.461,2.318C284.662,242.344,292.28,255.592,299.908,268.836z     M156.211,273.786c0.497,0.785,1.91,1.4,2.924,1.387c10.66-0.135,21.316-0.484,31.974-0.602c3.272-0.037,6.552,0.451,9.825,0.699    c0.085,0.309,0.169,0.615,0.253,0.922c-46.147,18.002-92.298,36.004-138.446,54.006c-0.161-0.283-0.321-0.566-0.482-0.852    c38.029-31.475,76.06-62.951,114.089-94.427c0.204,0.128,0.409,0.255,0.614,0.383c-0.408,1.031-0.711,2.119-1.239,3.084    c-5.601,10.245-11.229,20.478-16.882,30.694c-0.382,0.693-1.108,1.195-1.497,1.887    C156.829,271.883,155.89,273.278,156.211,273.786z M162.379,270.942c1.695-3.352,3.16-6.451,4.799-9.453    c5.581-10.219,11.286-20.373,16.809-30.624c1.709-3.174,3.271-5.107,7.61-4.045c5.106,1.25,10.529,1.148,15.782,1.867    c2.995,0.412,5.915,1.348,8.889,1.941c3.594,0.719,7.211,1.325,11.145,2.039c-1.042,2.653-2.239,5.626-3.382,8.618    c-3.293,8.631-6.65,17.236-9.793,25.92c-0.969,2.68-2.172,3.865-5.293,3.826C193.612,270.836,178.276,270.942,162.379,270.942z     M125.091,170.283c19.488-34.194,14.894-67.233-5.587-99.439c15.239,10.496,28.397,23.256,39.346,38.049    c14.894,20.123,25.022,42.513,29.744,68.391c-2.701-2.159-4.477-3.763-6.431-5.109c-7.529-5.188-15.079-10.343-22.693-15.406    c-3.199-2.127-6.478-4.183-9.913-5.887c-1.422-0.705-3.345-0.401-5.041-0.555c-0.021,1.305-0.247,2.645-0.03,3.909    c1.099,6.382,1.943,12.842,3.602,19.082c1.299,4.889,3.653,9.498,5.597,14.378c-6.275,1.007-12.616,1.568-18.699,3.13    c-5.919,1.521-11.574,4.068-17.346,6.163c-0.001,0.507-0.002,1.015-0.004,1.521c7.905,3.979,15.704,8.192,23.745,11.874    c7.912,3.621,16.069,6.701,25.036,10.398c-44.494,15.32-87.353,13.668-130.047-4.73    C74.745,217.015,105.613,204.458,125.091,170.283z M108.357,188.229c-2.864-6.912-5.233-14.146-8.775-20.752    c-3.553-6.625-8.274-12.624-12.407-18.783c14.452,3.225,29.506,2.372,44.616-1.403    C127.843,163.363,119.832,176.885,108.357,188.229z M297.791,189.622c-14.021,25.393-36.709,36.612-64.543,39.34    C248.211,204.976,269.611,191.701,297.791,189.622z M256.205,200.785c15.624-19.1,33.965-33.218,54.852-45.275    c-1.327,10.46-4.976,19.686-9.507,28.62c-1.647,3.248-5.085,3.045-7.744,3.2c-10.093,0.582-19.25,4.044-28.214,8.247    C262.683,196.941,259.955,198.688,256.205,200.785z M253.683,199.093c-6.36,7.211-12.522,14.596-18.704,21.963    c-1.411,1.682-2.586,3.561-3.998,5.527c-3.796-5.26-7.295-10.379-11.079-15.275c-4.258-5.516-8.581-11.005-13.276-16.137    c-1.687-1.843-1.611-3.242-0.697-4.91c7.534-13.745,15.129-27.456,22.754-41.15c0.299-0.537,1.091-0.799,1.994-1.427    c7.132,12.444,14.07,24.458,20.894,36.536c1.361,2.409,2.015,5.237,3.481,7.563C256.992,194.861,255.736,196.766,253.683,199.093z     M231.002,311.002c-15.94-27.973-10.625-62.527-0.609-76.215C243.298,254.909,243.775,291.522,231.002,311.002z M227.027,228.503    c-16.849,3.945-51.659-9.975-67.692-36.375C177.982,190.198,209.492,201.026,227.027,228.503z M215.163,210.535    c-2.569-1.898-5.104-3.844-7.712-5.684c-9.613-6.787-20.141-11.696-31.563-14.406c-5.131-1.217-10.484-1.688-15.766-2.004    c-2.997-0.18-3.962-2.158-4.9-4.126c-4.093-8.588-6.786-17.585-7.331-27.153c-0.058-1.02-0.467-2.021-0.824-3.495    C163.459,159.537,193.1,181.031,215.163,210.535z M122.711,197.467c5.414-1.582,10.086-3.267,14.9-4.266    c5.186-1.077,10.492-1.634,15.773-2.123c1.067-0.1,2.724,0.825,3.316,1.773c6.053,9.708,14.375,17.199,23.369,23.982    c3.096,2.334,6.702,3.988,10.846,6.4C178.544,222.564,143.011,210.976,122.711,197.467z M218.455,265.653    c0,2.854-0.27,5.738,0.052,8.555c0.831,7.275,1.43,14.635,3.063,21.744c1.388,6.035,4.155,11.748,6.145,17.66    c0.369,1.096,0.358,2.703-0.191,3.664c-5.295,9.271-12.82,16.471-21.957,23.148C204.999,314.235,209.319,289.584,218.455,265.653z     M206.941,294.262c-3.057,15.297-4.711,30.721-4.219,46.334c0.038,1.209,0.628,2.4,0.962,3.6c1.16-0.434,2.508-0.621,3.451-1.34    c8.97-6.824,17.398-14.189,23.106-24.277c4.399,5.193,8.362,10.639,13.121,15.266c4.74,4.607,10.278,8.396,15.469,12.543    c0.431-0.299,0.861-0.6,1.294-0.898c1.585-18.24-0.772-36.221-4.465-55.047c17.41,15.029,31.059,31.721,41.153,51.393    c10.038,19.561,16.369,40.088,18.069,61.996c-18.952-36.467-48.916-55.66-89.776-53.27c-36.083,2.111-63.144,22.963-77.843,55.084    c4.177-46.924,24.321-85.645,60.431-117.184C207.379,290.954,207.268,292.629,206.941,294.262z M256.606,341.606    c-5.045-4.682-10.292-9.17-15.062-14.117c-3.009-3.123-5.311-6.93-7.918-10.439c-2.112-2.838,0.861-4.533,1.548-6.736    c2.095-6.721,5.003-13.295,6.175-20.17c1.491-8.756,1.594-17.746,2.322-26.988C253.804,288.231,258.245,314.059,256.606,341.606z     M264.666,224.623c4.558-2.869,9.01-5.539,13.324-8.414c8.385-5.588,15.553-12.662,20.819-21.083    c2.979-4.759,6.757-5.61,11.055-5.427c5.624,0.242,11.271,1.217,16.782,2.445c4.343,0.967,8.495,2.793,13.28,4.425    C325.736,207.851,279.922,225.269,264.666,224.623z M232.913,44.645c1.099,6.508,2.123,13.03,3.21,19.541    c1.318,7.903,2.658,15.803,4.01,23.702c1.293,7.558,2.656,15.105,3.907,22.671c1.15,6.963,2.111,13.96,3.311,20.917    c1.239,7.182,2.763,14.315,3.982,21.5c1.182,6.976,2.113,13.995,3.2,20.988c0.448,2.889,1.014,5.761,0.887,8.927    c-2.549-4.2-5.181-8.353-7.63-12.61c-4.785-8.307-9.479-16.668-14.176-25.026c-0.448-0.8-0.485-1.851-0.991-2.595    c-1.344-1.973-3.888-1.653-5.212,0.807c-4.062,7.534-7.947,15.163-11.995,22.704c-2.375,4.423-4.932,8.749-7.406,13.119    c-0.619,1.094-1.235,2.188-1.854,3.282c-0.297-0.029-0.593-0.058-0.89-0.089c0.638-4.636,1.203-9.285,1.931-13.908    c1.319-8.379,2.682-16.751,4.127-25.109c1.243-7.19,2.711-14.342,3.929-21.535c1.182-6.984,2.147-14.002,3.258-20.997    c0.685-4.309,1.487-8.598,2.194-12.902c1.68-10.229,3.299-20.47,5.011-30.694c1.419-8.475,2.934-16.934,4.897-25.461    C231.383,36.133,232.19,40.382,232.913,44.645z M155.605,32.419c11.163-3.943,22.447-7.369,34.201-9.435    c11.812-2.074,23.612-3.647,35.579-4.06c0.946-0.032,1.892-0.004,3.294-0.004c-0.869,5.603-1.716,10.897-2.507,16.199    c-1.131,7.583-2.156,15.182-3.352,22.755c-1.01,6.395-2.221,12.761-3.302,19.145c-1.315,7.775-2.555,15.563-3.891,23.334    c-1.219,7.085-2.579,14.146-3.779,21.235c-1.199,7.082-2.28,14.185-3.406,21.28c-0.498,3.138-0.925,6.287-1.479,9.414    c-1.643,9.272-3.311,18.539-5.016,27.8c-0.476,2.583-1.111,5.138-1.732,7.971c-1.798-1.624-3.189-3.305-4.951-4.375    c-3.191-1.942-3.031-5.382-3.897-8.216c-2.707-8.842-4.396-18.039-7.643-26.661c-3.233-8.592-7.56-16.827-11.964-24.915    c-9.073-16.662-20.962-31.215-35.44-43.416c-8.91-7.508-18.636-14.051-28.038-20.97c-0.466-0.342-1.283-0.209-1.969-0.254    c4.014-2.878,7.887-5.981,12.072-8.583C130.171,43.337,142.508,37.046,155.605,32.419z M64.869,98.252    c6.986-8.358,14.544-16.29,22.364-23.881c5.671-5.506,12.176-10.153,18.325-15.163c0.112-0.092,0.408,0.04,0.635,0.086    c0.278,1.144,0.204,2.688,0.928,3.326c11.281,9.966,18.706,22.547,23.161,36.599c2.68,8.452,3.84,17.538,4.492,26.426    c0.441,6.024-1.186,12.199-1.971,19.031c-8.958,1.065-17.697,2.703-26.478,2.956c-6.788,0.195-13.677-1.063-20.418-2.255    c-2.58-0.456-5.154-2.189-7.25-3.922c-8.438-6.979-17.69-12.433-28.042-16.029c-1.2-0.418-2.286-1.162-4.262-2.191    C52.587,114.747,58.285,106.129,64.869,98.252z M68.678,137.565c-4.554-0.021-7.731-2.973-11.336-5.017    c0.172-0.294,0.344-0.588,0.516-0.883C61.465,133.632,65.071,135.599,68.678,137.565z M19.869,205.656    c0.931-6.753,1.857-13.526,3.278-20.187c1.467-6.876,3.119-13.757,5.353-20.414c4.036-12.037,8.543-23.918,15.041-34.917    c0.519-0.878,0.88-1.851,1.513-3.203c8.774,7.547,17.95,13.954,28.636,17.412c10.101,3.268,15.165,11.591,20.195,19.444    c4.509,7.039,6.925,15.414,10.308,23.183c1.154,2.649,0.731,4.663-1.623,6.561c-7.523,6.062-15.696,10.868-24.831,14.124    c-10.685,3.807-21.647,6.145-32.972,5.58c-7.949-0.396-15.983-1.18-23.393-4.551C20.552,208.312,19.737,206.611,19.869,205.656z     M48.249,336.713c-17.241-24.742-34.211-76.24-28.9-125.151c2.674,0.957,5.271,1.73,7.742,2.799    c6.822,2.951,13.462,6.373,20.415,8.955c7.228,2.684,14.669,4.885,22.149,6.766c5.355,1.346,10.905,2.095,16.415,2.607    c7.87,0.732,15.786,1.431,23.675,1.35c7.093-0.072,14.194-1.05,21.253-1.935c6.07-0.763,12.141-1.714,18.109-3.038    c5.257-1.166,10.627-2.41,15.482-4.633c5.008-2.295,9.451-2.461,14.176,0.104c0.668,0.361,1.5,0.422,3.358,0.912    c-44.286,36.761-87.929,72.987-131.962,109.538c-0.586-1.404-0.845-2.023-1.475-3.535    C48.504,333.649,48.401,334.883,48.249,336.713z M142.636,421.067c-25.561-9.648-64.916-36.234-93.034-80.877    c2.734-1.32,5.351-2.74,8.085-3.879c7.652-3.188,15.326-6.328,23.041-9.359c12.298-4.83,24.659-9.504,36.952-14.348    c12.295-4.844,24.492-9.939,36.821-14.695c11.47-4.424,23.089-8.463,34.582-12.834c6.853-2.607,13.585-5.537,20.384-8.287    c0.4-0.162,0.922-0.021,1.391-0.021c-0.158,7.1-5.964,10.227-10.189,14.129c-12.232,11.287-22.898,23.73-31.605,37.967    c-7.596,12.418-13.648,25.52-17.775,39.375c-2.843,9.539-4.486,19.473-6.116,29.322    C143.896,405.258,143.463,413.1,142.636,421.067z M145.632,422.727c7.646-32.125,27.058-53.668,57.948-65.398    c10.128,9.223,17.432,20.17,22.532,32.971c2.792,7.006,2.29,13.342,1.404,20.434c-0.901,7.217,0.316,14.703,0.653,22.068    c0.095,2.092,0.355,4.174,0.54,6.244C211.69,440.409,183.612,438.387,145.632,422.727z M231.259,429.215    c-0.241,0.002-0.482,0.002-0.723,0.004v-19.188c0.24-0.002,0.481-0.004,0.723-0.006V429.215z M230.578,393.592    c-4.325-13.908-12.252-26.336-22.866-37.217c15.174-4.338,30.242-4.738,45.199-0.441c-4.462,6.326-9.087,12.105-12.826,18.412    C236.437,380.497,233.694,387.184,230.578,393.592z M312.05,423.196c-12.806,4.936-25.716,9.412-39.264,12.143    c-12.466,2.512-24.969,4.008-37.63,4.508c-0.725,0.029-1.471-0.477-2.207-0.734c0.361-0.066,0.723-0.133,1.084-0.197    c0.11-7.855,0.41-15.717,0.259-23.566c-0.09-4.588-1.759-9.271-1.181-13.711c0.773-5.945,2.441-11.951,4.802-17.471    c3.449-8.074,8.426-15.326,14.272-21.99c4.813-5.486,5.069-5.869,11.729-3.008c12.157,5.229,23.345,12.094,32.046,22.146    c7.746,8.947,14.541,18.66,17.683,30.398c0.418,1.559,1.232,3.012,1.687,4.563C316.766,421.186,316.798,421.366,312.05,423.196z     M319.829,419.467c-0.682-5.932-1.144-11.553-2.01-17.111c-1.229-7.895-2.319-15.852-4.274-23.58    c-2.152-8.514-4.737-16.99-7.98-25.146c-6.646-16.717-15.906-32.008-27.979-45.367c-6.896-7.629-14.86-14.287-21.829-21.859    c-2.369-2.574-3.163-6.6-4.239-10.377c53.528,19.146,105.963,40.355,158.879,61.611    C387.73,373.676,358.271,401.375,319.829,419.467z M440.259,215.308c0.077,6.596,0.049,13.193,0.018,19.792    c-0.058,11.764-1.475,23.375-4.164,34.822c-1.962,8.35-3.223,16.973-6.193,24.951c-4.905,13.17-10.939,25.918-16.732,39.393    c-44.781-36.686-88.737-72.693-132.707-108.712c5.643-3.531,11.234-2.531,17.017-0.307c9.377,3.607,19.108,5.911,29.132,6.777    c9.472,0.818,18.979,2.208,28.437,1.97c10.119-0.254,20.295-1.587,30.266-3.431c9.339-1.729,18.615-4.236,27.596-7.338    c8.123-2.807,15.827-6.838,23.678-10.41C439.426,211.533,440.22,211.919,440.259,215.308z M420.057,140.016    c4.472,10.892,9.254,21.732,12.633,32.977c2.956,9.841,4.433,20.164,6.035,30.358c0.737,4.684-0.892,6.291-6.544,7.006    c-8.218,1.043-16.534,2.385-24.756,2.096c-19.631-0.684-37.09-7.701-52.127-20.444c-0.748-0.634-1.465-2.173-1.211-2.979    c1.728-5.482,3.374-11.036,5.703-16.275c4.392-9.883,10.274-18.898,18.487-26.033c3.136-2.725,7.236-4.323,10.844-6.525    c6.968-4.255,13.895-8.577,20.846-12.86c0.702-0.433,1.454-0.783,2.905-1.556C415.344,130.624,418.067,135.169,420.057,140.016z     M400.435,106.715c3.73,4.912,6.956,10.207,10.333,15.222c-8.14,4.548-15.724,8.734-23.255,13.013    c-3.717,2.113-7.097,5.105-11.055,6.435c-5.409,1.818-11.212,2.473-16.862,3.551c-9.912,1.891-19.516-0.622-29.165-2.22    c-4.828-0.8-5.366-1.664-5.37-6.661c-0.004-5.083,0.092-10.168-0.022-15.248c-0.357-15.675,5.377-29.448,13.528-42.329    c4.067-6.426,8.393-12.829,14.976-17.128c0.606-0.397,1.848-0.728,2.248-0.408c10.409,8.356,20.899,16.637,29.431,27.036    C390.324,94.199,395.572,100.311,400.435,106.715z"
		/>
	</g>
</svg>