<?xml version="1.0" encoding="utf-8"?>
<!-- Generated by IcoMoon.io -->
<!DOCTYPE svg PUBLIC "-//W3C//DTD SVG 1.1//EN" "http://www.w3.org/Graphics/SVG/1.1/DTD/svg11.dtd">
<svg version="1.1" xmlns="http://www.w3.org/2000/svg" xmlns:xlink="http://www.w3.org/1999/xlink" width="32" height="32" viewBox="0 0 32 32">
<path fill="#444444" d="M22.158 0c0.074 0 0.149 0 0.228 0 0.183 2.257-0.679 3.943-1.726 5.164-1.027 1.213-2.434 2.389-4.709 2.21-0.152-2.224 0.711-3.786 1.756-5.004 0.97-1.135 2.747-2.146 4.45-2.371z"></path>
<path fill="#444444" d="M29.045 23.489c0 0.022 0 0.042 0 0.063-0.639 1.936-1.551 3.596-2.664 5.136-1.016 1.398-2.261 3.28-4.484 3.28-1.921 0-3.197-1.235-5.165-1.269-2.082-0.034-3.228 1.033-5.132 1.301-0.218 0-0.436 0-0.649 0-1.398-0.202-2.527-1.31-3.349-2.307-2.424-2.948-4.297-6.756-4.646-11.629 0-0.478 0-0.954 0-1.432 0.148-3.488 1.842-6.323 4.095-7.698 1.189-0.731 2.823-1.353 4.643-1.075 0.78 0.121 1.577 0.388 2.275 0.652 0.662 0.254 1.489 0.705 2.274 0.681 0.531-0.015 1.059-0.292 1.595-0.488 1.568-0.566 3.105-1.215 5.132-0.911 2.435 0.368 4.164 1.45 5.231 3.119-2.060 1.311-3.689 3.287-3.41 6.661 0.247 3.065 2.029 4.858 4.255 5.914z"></path>
</svg>
