<?xml version="1.0" encoding="utf-8"?>
<!-- Generated by IcoMoon.io -->
<!DOCTYPE svg PUBLIC "-//W3C//DTD SVG 1.1//EN" "http://www.w3.org/Graphics/SVG/1.1/DTD/svg11.dtd">
<svg version="1.1" xmlns="http://www.w3.org/2000/svg" xmlns:xlink="http://www.w3.org/1999/xlink" width="32" height="32" viewBox="0 0 32 32">
<path fill="#444444" d="M1.624 30.951l14.972-14.937-14.972-14.966c-0.369 0.595-0.624 1.559-0.624 2.947v24.007c0 1.389 0.255 2.352 0.624 2.948v0z"></path>
<path fill="#444444" d="M3.438 0l14.575 14.597 4.906-4.932-15.284-8.276c-1.73-0.935-2.807-1.389-4.055-1.389-0.057 0-0.114 0-0.142 0v0z"></path>
<path fill="#444444" d="M24.762 10.657l-5.331 5.357 5.331 5.329 3.233-1.758c1.191-0.652 3.006-1.843 3.006-3.571 0-1.758-1.815-2.948-3.006-3.6l-3.232-1.757z"></path>
<path fill="#444444" d="M22.919 22.334l-4.906-4.931-14.575 14.597c0.028 0 0.085 0 0.142 0 1.247 0 2.325-0.454 4.055-1.389l15.284-8.276z"></path>
</svg>
