<?xml version="1.0" encoding="utf-8"?>
<!-- Generated by IcoMoon.io -->
<!DOCTYPE svg PUBLIC "-//W3C//DTD SVG 1.1//EN" "http://www.w3.org/Graphics/SVG/1.1/DTD/svg11.dtd">
<svg version="1.1" xmlns="http://www.w3.org/2000/svg" xmlns:xlink="http://www.w3.org/1999/xlink" width="32" height="32" viewBox="0 0 32 32">
<path fill="#444444" d="M10.242 14.749c-0.788-0.227-1.576-0.342-2.343-0.342-1.184 0-2.172 0.271-2.938 0.602 0.738-2.703 2.512-7.368 6.046-7.894 0.327-0.049 0.595-0.285 0.685-0.604l0.772-2.763c0.065-0.234 0.027-0.484-0.107-0.686s-0.347-0.338-0.587-0.371c-0.261-0.036-0.527-0.054-0.79-0.054-4.242 0-8.443 4.427-10.215 10.767-1.041 3.719-1.346 9.311 1.217 12.83 1.434 1.969 3.527 3.021 6.22 3.126 0.011 0 0.022 0.001 0.033 0.001 3.322 0 6.269-2.238 7.165-5.441 0.535-1.915 0.293-3.923-0.682-5.656-0.965-1.714-2.554-2.963-4.476-3.515z"></path>
<path fill="#444444" d="M31.040 18.265c-0.965-1.714-2.554-2.963-4.476-3.516-0.788-0.227-1.576-0.342-2.343-0.342-1.184 0-2.172 0.271-2.938 0.602 0.738-2.703 2.512-7.368 6.047-7.894 0.327-0.049 0.595-0.285 0.685-0.604l0.772-2.763c0.065-0.234 0.027-0.484-0.107-0.686s-0.347-0.338-0.587-0.371c-0.26-0.036-0.526-0.054-0.79-0.054-4.242 0-8.443 4.427-10.216 10.767-1.040 3.719-1.345 9.311 1.218 12.831 1.434 1.969 3.527 3.021 6.219 3.126 0.011 0 0.022 0.001 0.033 0.001 3.322 0 6.269-2.238 7.165-5.441 0.535-1.915 0.292-3.924-0.683-5.656z"></path>
</svg>
