<?xml version="1.0" encoding="utf-8"?>
<!-- Generated by IcoMoon.io -->
<!DOCTYPE svg PUBLIC "-//W3C//DTD SVG 1.1//EN" "http://www.w3.org/Graphics/SVG/1.1/DTD/svg11.dtd">
<svg version="1.1" xmlns="http://www.w3.org/2000/svg" xmlns:xlink="http://www.w3.org/1999/xlink" width="32" height="32" viewBox="0 0 32 32">
<path fill="#444444" d="M5.294 14.903l1.232 4.584h1.813l2.292-7.124h-1.863l-1.359 4.669-1.192-4.669h-1.819l-1.229 4.669-1.335-4.669h-1.832l2.255 7.124h1.835z"></path>
<path fill="#444444" d="M16.9 12.363h-1.818l-1.23 4.669-1.34-4.669h-1.832l2.259 7.124h1.836l1.206-4.584 1.234 4.584h1.81l2.292-7.124h-1.859l-1.366 4.669z"></path>
<path fill="#444444" d="M30.137 12.363l-1.364 4.669-1.189-4.669h-1.822l-1.23 4.669-1.333-4.669h-1.835l2.26 7.124h1.833l1.206-4.584 1.23 4.584h1.815l2.292-7.124z"></path>
<path fill="#444444" d="M15.999 2.277c-5.511 0-10.251 3.257-12.432 7.943h24.865c-2.183-4.685-6.922-7.943-12.433-7.943z"></path>
<path fill="#444444" d="M15.999 29.723c5.512 0 10.247-3.256 12.432-7.943h-24.861c2.181 4.685 6.918 7.943 12.429 7.943z"></path>
</svg>
